<?xml version="1.0" encoding="utf-8"?>
<!-- Generator: Adobe Illustrator 19.0.0, SVG Export Plug-In . SVG Version: 6.00 Build 0)  -->
<svg version="1.1" id="Layer_1" xmlns="http://www.w3.org/2000/svg" xmlns:xlink="http://www.w3.org/1999/xlink" x="0px" y="0px"
	 viewBox="-55 147 500 500" style="enable-background:new -55 147 500 500;" xml:space="preserve">
<style type="text/css">
	.st0{fill:#F5F5F5;}
	.st1{fill:#E6E6E6;}
	.st2{fill:#1418A5;}
	.st3{opacity:0.15;}
	.st4{fill:#FFFFFF;}
	.st5{fill:#263238;}
	.st6{fill:#455A64;}
	.st7{fill:#37474F;}
	.st8{opacity:0.5;fill:#FFFFFF;enable-background:new    ;}
	.st9{opacity:0.1;enable-background:new    ;}
	.st10{opacity:0.65;fill:#FFFFFF;enable-background:new    ;}
	.st11{opacity:0.2;enable-background:new    ;}
	.st12{fill:#F0F0F0;}
	.st13{fill:#FAFAFA;}
	.st14{fill:#FFA8A7;}
	.st15{opacity:0.5;enable-background:new    ;}
	.st16{opacity:0.5;fill:#37474F;enable-background:new    ;}
	.st17{opacity:0.75;}
	.st18{opacity:0.1;fill:#1418A5;enable-background:new    ;}
	.st19{fill:#F28F8F;}
	.st20{opacity:0.15;enable-background:new    ;}
	.st21{fill:#EBEBEB;}
	.st22{opacity:0.3;enable-background:new    ;}
	.st23{fill:#B16668;}
	.st24{fill:#9A4A4D;}
	.st25{opacity:0.25;enable-background:new    ;}
	.st26{fill:#E0E0E0;}
</style>
<g id="Floor--inject-2">
	<ellipse id="floor--inject-2" class="st0" cx="195" cy="510.3" rx="230.4" ry="128.2"/>
</g>
<g id="Shadows--inject-2">
	<polygon id="Shadow--inject-2" class="st1" points="-16.2,516.3 105.6,586.6 329,457.6 207.2,387.3 	"/>
	<ellipse id="shadow--inject-2" class="st1" cx="287.7" cy="560" rx="83.2" ry="48"/>
	<ellipse id="shadow--inject-2_1_" class="st1" cx="213.7" cy="534.1" rx="62.1" ry="35.8"/>
</g>
<g id="Plant--inject-2">
	<g id="Plants--inject-2">
		<path class="st2" d="M2.6,482.3c0.1-6.9-0.7-13.8-2.6-20.5c-3.2-10.7-10.1-21.9-19.2-24.8s-13.6,2.9-12.2,9.2
			c1.1,5.4,7.6,10.5,12.3,15.6s13.3,17.2,15,28.2l5.2,1.1L2.6,482.3z"/>
		<g class="st3">
			<path d="M2.6,482.3c0.1-6.9-0.7-13.8-2.6-20.5c-3.2-10.7-10.1-21.9-19.2-24.8s-13.6,2.9-12.2,9.2c1.1,5.4,7.6,10.5,12.3,15.6
				s13.3,17.2,15,28.2l5.2,1.1L2.6,482.3z"/>
		</g>
		<path class="st4" d="M-1.4,486.8c-0.3,0-0.6-0.3-0.5-0.6c1.8-27-23-44.7-23.3-44.9c-0.3-0.2-0.4-0.6-0.2-0.8
			c0.2-0.3,0.6-0.4,0.8-0.2c0.3,0.2,25.6,18.3,23.8,46C-0.8,486.5-1.1,486.8-1.4,486.8C-1.4,486.8-1.4,486.8-1.4,486.8L-1.4,486.8z"
			/>
		<path class="st2" d="M-3.4,517.2c-2.5,0.9-5.2,0.9-7.7,0c-1.9-0.7-3.7-1.8-5.2-3.2c-1.4-1.5-2.6-3.2-3.5-5.1
			c-0.6-1.3-1.3-2.5-2.1-3.6c-1.8-2.2-5.2-2.5-7.7-3.3c-3.4-1-6.1-3.8-6.9-7.3c-0.7-3.5,0.2-7.5,3.5-9.4l-2.5-2
			c-1.2-0.9-2.2-1.9-3.2-3c-0.9-1.1-1.4-2.5-1.3-4c0.4-2.2,1.9-3.9,4-4.5c2.1-0.6,4.2-0.6,6.3,0c2.1,0.5,4.1,1.2,6.1,2.1
			c0.5,0.3,1.1,0.5,1.7,0.6c0.8-0.1,1.6-0.3,2.2-0.8c4.9-2.5,12.3-1.6,14.2,4.4c0.3,0.9,0.4,1.8,0.7,2.6c1.1,3.2,5.2,2.7,7.6,4.4
			c1.6,1.1,1.1,4.1,1.2,6.1c0.2,3.4,0.3,5.8-0.7,8.9c-0.4,1.2-1.1,2.2-1.5,3.4c-0.5,1.6-0.3,3.6-0.6,5.3c-0.4,2.9-1,6.6-3.9,8
			C-2.8,516.9-3.1,517.1-3.4,517.2z"/>
		<path class="st4" d="M-0.1,510.6c-1.6-6.5-4.8-12.5-9.2-17.5c0-0.1-0.1-0.2-0.2-0.3c-1.3-1.5-2.6-2.9-4-4.2
			c-0.2-4.1,0.8-8.1,2.7-11.7c0.1-0.2,0.1-0.5-0.2-0.6c-0.2-0.1-0.5-0.1-0.6,0.1c0,0,0,0,0,0c-1.9,3.5-2.9,7.4-2.9,11.3
			c-5.8-5.1-12.4-9.3-19.5-12.4c-0.2-0.1-0.5,0-0.6,0.3c-0.1,0.2,0,0.5,0.3,0.6c8.7,3.7,16.5,9.1,23,15.9
			c-6.6-1.9-14.9,0.6-15.3,0.7c-0.2,0.1-0.4,0.3-0.3,0.6c0.1,0.2,0.2,0.3,0.4,0.3c0.1,0,0.1,0,0.2,0c0.1,0,9.9-2.9,16.3-0.1
			c4.4,4.9,7.5,10.8,9.1,17.2c0,0.2,0.2,0.3,0.4,0.4c0.1,0,0.1,0,0.2,0C-0.2,511.1-0.1,510.9-0.1,510.6z"/>
	</g>
</g>
<g id="Table--inject-2">
	<g id="drafting-table--inject-2">
		<polygon class="st5" points="294.2,367.3 294.2,460.5 297.7,458.5 297.7,365.3 		"/>
		<polygon class="st6" points="294.2,460.5 290.7,458.5 290.7,365.3 294.2,367.3 		"/>
		<polygon class="st6" points="97.8,475.8 -2.1,418 -2.1,423.8 97.8,481.5 297.7,366.2 297.6,360.5 		"/>
		<polygon class="st5" points="297.6,360.5 297.7,366.2 97.8,481.5 97.8,475.8 		"/>
		<path class="st7" d="M197.8,302.7L-2.1,418l99.9,57.7l199.8-115.3L197.8,302.7z M97.8,470L7.9,418l189.9-109.6l89.9,51.9L97.8,470
			z"/>
		<polygon class="st5" points="7.9,418.1 197.8,308.5 287.7,360.4 282.7,363.3 197.8,314.2 12.9,420.9 		"/>
		<polygon class="st6" points="22.8,426.7 27.8,348.8 22.8,345.9 17.8,423.8 		"/>
		<polygon class="st2" points="297.6,354.7 217.8,227.7 17.9,342.9 17.9,348.7 97.8,475.8 297.6,360.5 		"/>
		<polygon class="st8" points="297.6,354.7 217.8,227.7 17.9,342.9 17.9,348.7 97.8,475.8 297.6,360.5 		"/>
		<polygon class="st9" points="97.8,470 97.8,475.8 297.6,360.5 297.6,354.7 		"/>
		<polygon class="st2" points="97.8,470 17.9,342.9 217.8,227.7 297.6,354.7 		"/>
		<polygon class="st10" points="97.8,470 17.9,342.9 217.8,227.7 297.6,354.7 		"/>
		<polygon class="st5" points="97.8,480.6 97.8,573.9 101.3,571.8 101.3,478.6 		"/>
		<polygon class="st6" points="97.8,573.9 94.3,571.8 94.3,478.6 97.8,480.6 		"/>
		<polygon class="st5" points="1.3,424.9 1.3,518.1 4.8,516.1 4.8,422.9 		"/>
		<polygon class="st6" points="1.3,518.1 -2.1,516.1 -2.1,422.9 1.3,424.9 		"/>
		<polygon class="st11" points="34.3,349.8 212.8,246.8 279.6,353 101.1,456 		"/>
		<polygon class="st6" points="35.1,347.2 213.6,244.2 280.4,350.5 101.9,453.4 		"/>
		<path class="st12" d="M80.1,389.9l-2.6-3.8c-0.2-0.3-0.6-0.3-0.9-0.2l-0.2,0.1c-0.3,0.1-0.3,0.5-0.2,0.7c0,0,0,0,0,0.1l2.6,3.8
			c0.2,0.3,0.6,0.4,0.9,0.2l0.2-0.1C80.1,390.5,80.2,390.2,80.1,389.9C80.1,389.9,80.1,389.9,80.1,389.9z"/>
		<path class="st12" d="M82.7,388.3l-2.6-3.8c-0.2-0.3-0.6-0.3-0.9-0.2l-0.2,0.1c-0.3,0.1-0.3,0.5-0.2,0.7c0,0,0,0,0,0.1l2.6,3.8
			c0.2,0.3,0.6,0.3,0.9,0.2l0.2-0.1C82.8,389,82.9,388.7,82.7,388.3C82.8,388.4,82.7,388.4,82.7,388.3z"/>
		<path class="st12" d="M73.3,391.3l2.3-0.1c0.1,0,0.2-0.1,0.2-0.2c0,0,0-0.1,0-0.1l-1.3-1.8c-0.1-0.1-0.2-0.1-0.3-0.1
			c0,0-0.1,0-0.1,0.1l-1,1.8c-0.1,0.1,0,0.2,0.1,0.3C73.2,391.3,73.3,391.3,73.3,391.3z"/>
		<path class="st12" d="M73.9,392.3l-1.5-2.1c-0.1-0.1-0.3-0.2-0.4-0.1l-0.1,0.1c-0.1,0.1-0.2,0.3-0.1,0.4c0,0,0,0,0,0l1.5,2.1
			c0.1,0.2,0.3,0.2,0.5,0.1l0.1-0.1C74,392.6,74,392.4,73.9,392.3C73.9,392.3,73.9,392.3,73.9,392.3z"/>
		<path class="st12" d="M85.8,384.1l-1,1.8c-0.1,0.1-0.2,0.1-0.3,0.1c0,0,0,0-0.1-0.1l-1.3-1.8c-0.1-0.1,0-0.2,0.1-0.3
			c0,0,0.1,0,0.1,0h2.3c0.1,0,0.2,0.1,0.2,0.2C85.8,384.1,85.8,384.1,85.8,384.1z"/>
		<path class="st12" d="M86.4,385l-1.4-2.1c-0.1-0.1-0.1-0.3,0.1-0.4c0,0,0,0,0,0l0.1-0.1c0.2-0.1,0.4,0,0.5,0.1l1.5,2.1
			c0.1,0.1,0.1,0.3-0.1,0.4c0,0,0,0,0,0l-0.1,0.1C86.8,385.2,86.6,385.2,86.4,385C86.5,385,86.4,385,86.4,385z"/>
		<path class="st12" d="M82.9,402c-0.2,0-0.3-0.1-0.4-0.3c-0.2-1.1,0.2-2.3,0.9-3.2c1.3-1.7,3.2-2.8,5.4-2.9c0.2,0,0.4,0.1,0.4,0.3
			c0,0.2-0.1,0.4-0.3,0.4c-1.9,0.1-3.7,1-4.8,2.6c-0.6,0.7-0.8,1.6-0.8,2.5C83.3,401.7,83.2,401.9,82.9,402C83,402,83,402,82.9,402
			L82.9,402z"/>
		<path class="st12" d="M91.3,395.5l-2.4-0.9c-0.1-0.1-0.3,0-0.3,0.1c0,0,0,0.1,0,0.1l0.5,2.4c0,0.1,0.1,0.2,0.3,0.2
			c0,0,0.1,0,0.1,0l2-1.5c0.1-0.1,0.1-0.3,0-0.4C91.4,395.6,91.4,395.5,91.3,395.5z"/>
		<path class="st12" d="M87.3,404.1c-0.2,0-0.3-0.1-0.4-0.3c0-0.2,0.1-0.4,0.3-0.4c0,0,0,0,0,0c1.9-0.1,3.7-1,4.8-2.6
			c0.6-0.7,0.8-1.6,0.8-2.5c-0.1-0.2,0.1-0.4,0.2-0.5c0,0,0,0,0,0c0.2-0.1,0.4,0.1,0.5,0.3c0.2,1.1-0.2,2.3-0.9,3.2
			C91.5,403,89.5,404,87.3,404.1L87.3,404.1z"/>
		<path class="st12" d="M84.8,404.3l2.4,0.9c0.1,0,0.3,0,0.3-0.2c0,0,0-0.1,0-0.1l-0.5-2.4c0-0.1-0.2-0.2-0.3-0.2c0,0-0.1,0-0.1,0
			l-2,1.5c-0.1,0.1-0.1,0.3,0,0.4C84.7,404.2,84.8,404.3,84.8,404.3z"/>
		<path class="st12" d="M93.6,418.8c-0.1,0-0.2-0.1-0.3-0.2c-0.1-0.2,0-0.4,0.1-0.5c1.2-0.7,2-2.3,2.4-4.8c0.2-1.6,0.9-3.8,2.6-4.8
			c0.2-0.1,0.4,0,0.5,0.1c0.1,0.2,0,0.4-0.1,0.5c-1.5,0.9-2.1,2.8-2.3,4.3c-0.4,2.7-1.3,4.4-2.7,5.3
			C93.8,418.8,93.7,418.8,93.6,418.8z"/>
		<path class="st12" d="M100.7,408l-1,1.9c-0.1,0.1-0.2,0.1-0.3,0.1c0,0,0,0-0.1-0.1l-1.3-1.9c-0.1-0.1,0-0.2,0.1-0.3
			c0,0,0.1,0,0.1,0l2.3,0c0.1,0,0.2,0.1,0.2,0.2C100.7,407.9,100.7,408,100.7,408z"/>
		<path class="st12" d="M99.3,414.3c-1.1,0-2.1-0.2-3.2-0.5c-2.6-0.8-4.6-0.8-5.8-0.1c-0.2,0.1-0.4,0-0.5-0.1
			c-0.1-0.2,0-0.4,0.1-0.5c1.4-0.8,3.5-0.8,6.3,0c1.3,0.4,3.7,0.9,5.3-0.1c0.1-0.1,0.4-0.1,0.5,0.1c0.1,0.1,0.1,0.4-0.1,0.5
			c0,0-0.1,0-0.1,0.1C101.1,414.1,100.2,414.3,99.3,414.3z"/>
		<path class="st12" d="M103.6,412.1l-2.3,0c-0.1,0-0.2,0.1-0.2,0.2c0,0,0,0.1,0,0.1l1.3,1.9c0.1,0.1,0.2,0.1,0.3,0.1
			c0,0,0,0,0.1-0.1l1-1.9c0.1-0.1,0-0.2-0.1-0.3C103.6,412.1,103.6,412.1,103.6,412.1z"/>
		<path class="st12" d="M110.1,424l-5.7,3.3c-0.3,0.2-0.6,0.1-0.8-0.2l-0.1-0.1c-0.2-0.2-0.1-0.5,0.1-0.7c0,0,0,0,0.1,0l5.7-3.3
			c0.3-0.2,0.6-0.1,0.8,0.2l0.1,0.1C110.5,423.5,110.4,423.8,110.1,424C110.2,424,110.2,424,110.1,424z"/>
		<path class="st12" d="M111.5,425.9l-5.7,3.3c-0.3,0.1-0.6,0.1-0.8-0.2l-0.1-0.1c-0.2-0.2-0.1-0.5,0.1-0.7c0,0,0,0,0.1,0l5.7-3.3
			c0.3-0.1,0.6-0.1,0.8,0.2l0.1,0.1C111.8,425.4,111.8,425.7,111.5,425.9C111.5,425.9,111.5,425.9,111.5,425.9z"/>
		<path class="st12" d="M112.8,427.8l-5.7,3.3c-0.3,0.2-0.6,0.1-0.8-0.2l-0.1-0.1c-0.2-0.2-0.1-0.5,0.1-0.7c0,0,0,0,0.1,0l5.7-3.3
			c0.3-0.2,0.6-0.1,0.8,0.2l0.1,0.1C113.1,427.3,113.1,427.6,112.8,427.8C112.8,427.8,112.8,427.8,112.8,427.8z"/>
		<path class="st12" d="M99.5,427.7c-0.1,0-0.2-0.1-0.3-0.2c-0.1-0.2,0-0.4,0.1-0.5l3.6-2c0.2-0.1,0.4,0,0.5,0.2
			c0.1,0.2,0,0.3-0.1,0.4l-3.6,2C99.6,427.7,99.5,427.7,99.5,427.7z"/>
		<path class="st12" d="M102.4,428.4c-0.1,0-0.2-0.1-0.3-0.1l-2.4-3.4c-0.1-0.2,0-0.4,0.1-0.5c0.2-0.1,0.4-0.1,0.5,0.1l2.4,3.4
			c0.1,0.2,0.1,0.4-0.1,0.5C102.6,428.4,102.5,428.4,102.4,428.4z"/>
		<g id="Mobile--inject-2">
			<path class="st12" d="M163.2,385c-0.4,0-0.8-0.2-1-0.5l-31.4-44.8c-0.2-0.2-0.2-0.5-0.2-0.8c0.1-0.3,0.3-0.6,0.6-0.8l26.2-15.1
				c0.6-0.4,1.3-0.2,1.7,0.3l31.6,45.1c0.1,0.2,0.2,0.4,0.1,0.6c-0.1,0.3-0.4,0.6-0.7,0.8l-26.2,15.1C163.7,385,163.5,385,163.2,385
				z M158.2,323.4c-0.1,0-0.3,0-0.4,0.1l-26.2,15.1c-0.2,0.1-0.3,0.2-0.3,0.4c0,0.1,0,0.2,0.1,0.3l31.4,44.8
				c0.2,0.3,0.6,0.3,0.9,0.1l26.2-15.1c0.4-0.2,0.4-0.4,0.4-0.4c0,0,0-0.1,0-0.1l-31.6-45.1C158.6,323.4,158.4,323.4,158.2,323.4
				L158.2,323.4z"/>
		</g>
		<path class="st12" d="M134.8,339.6c0.2,0.2,0.1,0.5-0.1,0.7c0,0,0,0-0.1,0c-0.3,0.1-0.6,0.1-0.8-0.2c-0.2-0.2-0.1-0.5,0.1-0.7
			c0,0,0,0,0.1,0C134.3,339.3,134.6,339.4,134.8,339.6z"/>
		<path class="st12" d="M136.4,338.7c0.2,0.2,0.1,0.5-0.1,0.7c0,0,0,0-0.1,0c-0.3,0.1-0.6,0.1-0.8-0.2c-0.2-0.2-0.1-0.5,0.1-0.7
			c0,0,0,0,0.1,0C135.9,338.4,136.3,338.4,136.4,338.7z"/>
		<path class="st12" d="M138.1,337.7c0.2,0.2,0.1,0.5-0.1,0.7c0,0,0,0-0.1,0c-0.3,0.1-0.6,0.1-0.8-0.2c-0.2-0.2-0.1-0.5,0.1-0.7
			c0,0,0,0,0.1,0C137.6,337.4,137.9,337.5,138.1,337.7z"/>
		<path class="st12" d="M159,326.6L159,326.6l-2-0.4c-0.1,0-0.1-0.1-0.1-0.2c0-0.1,0.1-0.1,0.2-0.1l2,0.4c0.1,0,0.1,0.1,0.1,0.2
			C159.2,326.6,159.1,326.7,159,326.6C159,326.7,159,326.7,159,326.6z"/>
		<path class="st12" d="M157.7,327.4L157.7,327.4c-0.1,0-0.1-0.1-0.1-0.1c0,0,0,0,0,0l0.4-1.9c0-0.1,0.1-0.1,0.2-0.1c0,0,0,0,0,0
			c0.1,0,0.1,0.1,0.1,0.2l-0.4,1.9C157.9,327.3,157.8,327.4,157.7,327.4z"/>
		<path class="st12" d="M146.6,344.1l10.4-6c0.3-0.1,0.3-0.5,0.2-0.7c0,0,0,0,0,0l-0.1-0.2c-0.2-0.3-0.6-0.3-0.9-0.2l-10.4,6
			c-0.3,0.1-0.3,0.5-0.2,0.7c0,0,0,0,0,0.1l0.1,0.2C145.9,344.1,146.3,344.2,146.6,344.1z"/>
		<path class="st12" d="M148.6,345.4l8.9-5.1c0.1-0.1,0.1-0.2,0.1-0.3c0,0,0,0,0,0l-0.1-0.1c-0.1-0.1-0.2-0.1-0.3-0.1l-8.9,5.2
			c-0.1,0.1-0.1,0.2-0.1,0.3c0,0,0,0,0,0l0.1,0.1C148.3,345.5,148.5,345.5,148.6,345.4z"/>
		<path class="st12" d="M167.7,350.6c1.5,3.3,0.2,7.2-3,9c-2.9,1.6-6.5,1.4-9.2-0.5l1.1-7.3l8.4,2.8c0.6,0.2,0.7,0.1,0.2-0.4
			l-2.1-1.4l0.9-3.3L167.7,350.6z"/>
		<path class="st12" d="M155.7,346.8c-3.4,1.8-4.7,6.1-2.8,9.5c0.2,0.3,0.3,0.6,0.5,0.8c0.3,0.4,0.6,0.8,1,1.1l1.1-7.4
			c0-0.1,0.1-0.2,0.2-0.3l0,0c0.1-0.1,0.2-0.1,0.3,0l5.9,2l1-3.8c0.1-0.2,0.3-0.3,0.5-0.3l3.6,0.8v-0.1
			C164.4,345.7,159.6,344.6,155.7,346.8z M160.2,348.9c-0.5,0.3-1.2,0.1-1.5-0.3c-0.3-0.5-0.2-1.1,0.3-1.4c0,0,0,0,0,0
			c0.5-0.3,1.2-0.1,1.5,0.4C160.8,348,160.7,348.6,160.2,348.9C160.2,348.9,160.2,348.9,160.2,348.9L160.2,348.9z"/>
		<path class="st12" d="M169.1,367.4l-2.6-3.8c-0.2-0.3-0.6-0.3-0.9-0.2l-0.2,0.1c-0.3,0.1-0.3,0.5-0.2,0.7c0,0,0,0,0,0.1l2.6,3.8
			c0.2,0.3,0.6,0.4,0.9,0.2l0.2-0.1C169.2,368,169.3,367.7,169.1,367.4C169.2,367.4,169.1,367.4,169.1,367.4z"/>
		<path class="st12" d="M171.8,365.9l-2.6-3.8c-0.2-0.3-0.6-0.3-0.9-0.2l-0.2,0.1c-0.3,0.1-0.3,0.5-0.2,0.7c0,0,0,0,0,0l2.6,3.8
			c0.2,0.3,0.6,0.3,0.9,0.2l0.2-0.1C171.9,366.5,172,366.2,171.8,365.9C171.8,365.9,171.8,365.9,171.8,365.9z"/>
		<path class="st12" d="M162.4,368.9h2.3c0.1,0,0.2-0.1,0.2-0.2c0,0,0-0.1,0-0.1l-1.3-1.8c-0.1-0.1-0.2-0.1-0.3-0.1
			c0,0-0.1,0-0.1,0.1l-1,1.8C162.2,368.7,162.2,368.8,162.4,368.9C162.4,368.8,162.4,368.8,162.4,368.9z"/>
		<path class="st12" d="M163,369.8l-1.5-2.1c-0.1-0.2-0.3-0.2-0.5-0.1l-0.1,0.1c-0.1,0.1-0.2,0.2-0.1,0.4c0,0,0,0,0,0l1.5,2.1
			c0.1,0.1,0.3,0.2,0.5,0.1l0.1-0.1C163.1,370.1,163.1,370,163,369.8C163,369.8,163,369.8,163,369.8z"/>
		<path class="st12" d="M174.9,361.7l-1,1.8c-0.1,0.1-0.2,0.1-0.3,0.1c0,0,0,0-0.1-0.1l-1.3-1.8c-0.1-0.1-0.1-0.2,0-0.3
			c0,0,0.1,0,0.1,0h2.3C174.8,361.4,174.9,361.5,174.9,361.7C174.9,361.6,174.9,361.6,174.9,361.7z"/>
		<path class="st12" d="M175.5,362.5l-1.5-2.1c-0.1-0.1-0.1-0.3,0.1-0.4c0,0,0,0,0,0l0.1-0.1c0.2-0.1,0.4,0,0.5,0.1l1.5,2.1
			c0.1,0.1,0.1,0.3-0.1,0.4c0,0,0,0,0,0l-0.1,0.1C175.8,362.7,175.6,362.7,175.5,362.5z"/>
		<path class="st12" d="M163.1,378.7c-0.1,0-0.1,0-0.1-0.1c-0.1-0.5,0.1-0.9,0.3-1.3c0.5-0.7,1.3-1.1,2.1-1.2c0.1,0,0.1,0,0.2,0.1
			c0,0,0,0,0,0c0,0.1-0.1,0.2-0.1,0.2c0,0,0,0,0,0c-0.8,0-1.5,0.4-1.9,1c-0.2,0.3-0.3,0.6-0.3,1
			C163.3,378.5,163.2,378.6,163.1,378.7L163.1,378.7z"/>
		<path class="st12" d="M166.5,376.1l-1-0.4c-0.1,0-0.1,0-0.1,0c0,0,0,0,0,0.1l0.2,1c0,0.1,0.1,0.1,0.1,0.1c0,0,0,0,0,0l0.8-0.6
			c0.1,0,0.1-0.1,0.1-0.1C166.6,376.2,166.5,376.1,166.5,376.1z"/>
		<path class="st12" d="M164.9,379.5c-0.1,0-0.1-0.1-0.1-0.1c0-0.1,0-0.1,0.1-0.1c0,0,0,0,0,0c0.8,0,1.5-0.4,1.9-1
			c0.2-0.3,0.3-0.6,0.3-1c0-0.1,0-0.2,0.1-0.2c0,0,0,0,0,0c0.1,0,0.2,0,0.2,0.1c0,0,0,0,0,0c0.1,0.4-0.1,0.9-0.3,1.3
			C166.5,379.1,165.8,379.6,164.9,379.5L164.9,379.5z"/>
		<path class="st12" d="M163.9,379.6l1,0.4c0.1,0,0.1,0,0.1-0.1c0,0,0,0,0-0.1l-0.2-1c0-0.1-0.1-0.1-0.1-0.1c0,0,0,0,0,0l-0.8,0.6
			c-0.1,0-0.1,0-0.1,0.1C163.8,379.6,163.8,379.6,163.9,379.6C163.9,379.6,163.9,379.6,163.9,379.6z"/>
		<path class="st12" d="M172.4,375.4c-0.1,0-0.1,0-0.1-0.1c0-0.1,0-0.2,0.1-0.2c0.7-0.5,1-1.3,1.1-2.1c0.1-0.8,0.5-1.6,1.1-2.1
			c0.1-0.1,0.2-0.1,0.2,0c0.1,0.1,0.1,0.2,0,0.2c0,0,0,0-0.1,0c-0.6,0.5-1,1.2-1,1.9C173.7,373.9,173.2,374.8,172.4,375.4
			L172.4,375.4z"/>
		<path class="st12" d="M175.5,370.6l-0.5,0.8c0,0-0.1,0.1-0.1,0c0,0,0,0,0,0l-0.6-0.8c0,0,0-0.1,0-0.1c0,0,0,0,0.1,0h1
			C175.5,370.5,175.5,370.5,175.5,370.6C175.5,370.6,175.5,370.6,175.5,370.6z"/>
		<path class="st12" d="M174.9,373.4c-0.5,0-0.9-0.1-1.4-0.2c-0.8-0.3-1.7-0.3-2.6,0c-0.1,0.1-0.1,0.1-0.2,0c0-0.1,0-0.2,0.1-0.2
			c0.9-0.4,1.9-0.4,2.8,0c0.8,0.3,1.6,0.3,2.3,0c0.1,0,0.2,0,0.2,0c0,0.1,0,0.2-0.1,0.2C175.7,373.4,175.3,373.4,174.9,373.4z"/>
		<path class="st12" d="M176.8,372.4h-1c-0.1,0-0.1,0-0.1,0.1c0,0,0,0.1,0,0.1l0.6,0.8c0,0,0.1,0.1,0.1,0c0,0,0,0,0,0l0.5-0.8
			C176.9,372.5,176.9,372.4,176.8,372.4C176.8,372.4,176.8,372.4,176.8,372.4z"/>
		<path class="st12" d="M184.4,366.7l-2.4,1.4c-0.1,0.1-0.3,0-0.3-0.1l0,0c-0.1-0.1,0-0.2,0.1-0.3c0,0,0,0,0,0l2.4-1.4
			c0.1-0.1,0.3,0,0.3,0.1l0,0C184.5,366.5,184.5,366.6,184.4,366.7C184.4,366.7,184.4,366.7,184.4,366.7z"/>
		<path class="st12" d="M184.9,367.5l-2.4,1.4c-0.1,0.1-0.3,0-0.3-0.1l0,0c-0.1-0.1-0.1-0.2,0-0.3c0,0,0,0,0,0l2.4-1.4
			c0.1-0.1,0.3,0,0.3,0.1l0,0C185.1,367.3,185.1,367.4,184.9,367.5C185,367.5,185,367.5,184.9,367.5z"/>
		<path class="st12" d="M185.5,368.3l-2.4,1.4c-0.1,0.1-0.3,0-0.3-0.1l0,0c-0.1-0.1,0-0.2,0.1-0.3c0,0,0,0,0,0l2.4-1.4
			c0.1-0.1,0.3,0,0.3,0.1l0,0C185.6,368.1,185.6,368.2,185.5,368.3C185.5,368.3,185.5,368.3,185.5,368.3z"/>
		<path class="st12" d="M180,368.3c-0.1,0-0.1,0-0.1-0.1c0-0.1,0-0.2,0.1-0.2l1.5-0.8c0.1,0,0.2,0,0.2,0c0,0.1,0,0.2,0,0.2
			c0,0,0,0,0,0L180,368.3L180,368.3z"/>
		<path class="st12" d="M181.2,368.5c-0.1,0-0.1,0-0.1-0.1l-1-1.4c-0.1-0.1-0.1-0.2,0-0.2c0.1-0.1,0.1-0.1,0.2,0c0,0,0,0,0,0l1,1.4
			C181.4,368.3,181.4,368.4,181.2,368.5L181.2,368.5z"/>
		<path class="st12" d="M170.2,353.9c-0.1-0.2-0.2-0.4-0.2-0.7l0,0c0-0.3,0.2-0.5,0.4-0.6c0.4-0.2,0.9-0.1,1.3,0.2c0,0,0.1,0,0.1,0
			c-0.2-0.4,0-0.9,0.3-1.2c0.2-0.1,0.5-0.2,0.8-0.1l0,0c0.2,0.1,0.4,0.2,0.6,0.4c0.4,0.6,0.1,1.4-0.1,2.1l-0.3,0.7l-0.8-0.1
			C171.5,354.5,170.6,354.5,170.2,353.9z"/>
		<path class="st12" d="M229.3,302.6c-0.4-0.5-0.5-1.1-0.4-1.7l0,0c0.1-0.7,0.5-1.3,1.1-1.7c1.1-0.5,2.4-0.3,3.3,0.5
			c0.1,0.1,0.3,0,0.3,0c-0.4-1.1-0.1-2.3,0.8-3c0.7-0.4,1.4-0.5,2.1-0.3l0,0c0.6,0.2,1.2,0.5,1.5,1.1c1.2,1.6,0.2,3.5-0.4,5.4
			l-0.8,1.9l-2.1-0.2C232.8,304.2,230.5,304.2,229.3,302.6z"/>
		<g id="mobile--inject-2">
			<path class="st12" d="M214.8,367c-0.4,0-0.8-0.2-1-0.5l-31.4-44.9c-0.2-0.2-0.2-0.5-0.1-0.8c0.1-0.3,0.3-0.6,0.6-0.8L209,305
				c0.6-0.3,1.3-0.2,1.7,0.3l31.6,45.1c0.1,0.2,0.2,0.4,0.1,0.6c-0.1,0.3-0.4,0.6-0.7,0.8l-26.2,15.1C215.3,367,215,367,214.8,367z
				 M209.8,305.4c-0.1,0-0.3,0-0.4,0.1l-26.2,15.1c-0.2,0.1-0.3,0.2-0.3,0.4c0,0.1,0,0.2,0.1,0.3l31.4,44.8c0.2,0.3,0.6,0.3,0.9,0.1
				l26.2-15.1c0.4-0.2,0.5-0.4,0.5-0.4c0,0,0-0.1,0-0.1l-31.5-45.1C210.2,305.5,210,305.4,209.8,305.4L209.8,305.4z"/>
		</g>
		<path class="st12" d="M210.5,308.7L210.5,308.7l-2-0.5c-0.1,0-0.1-0.1-0.1-0.1c0,0,0,0,0,0c0-0.1,0.1-0.1,0.2-0.1c0,0,0,0,0,0
			l2,0.4c0.1,0,0.1,0.1,0.1,0.2C210.7,308.7,210.6,308.7,210.5,308.7C210.5,308.7,210.5,308.7,210.5,308.7z"/>
		<path class="st12" d="M209.3,309.4L209.3,309.4c-0.1,0-0.1-0.1-0.1-0.2l0.4-1.9c0-0.1,0.1-0.1,0.2-0.1c0,0,0,0,0,0
			c0.1,0,0.1,0.1,0.1,0.2l-0.4,1.9C209.5,309.4,209.4,309.4,209.3,309.4z"/>
		<path class="st12" d="M190.8,325.9l10.4-6c0.3-0.1,0.3-0.5,0.2-0.7c0,0,0,0,0-0.1l-0.1-0.2c-0.2-0.3-0.6-0.3-0.9-0.2l-10.4,6
			c-0.3,0.1-0.3,0.5-0.2,0.7c0,0,0,0,0,0l0.1,0.2C190.1,326,190.5,326.1,190.8,325.9z"/>
		<path class="st12" d="M194.3,331l10.4-6c0.3-0.1,0.3-0.5,0.2-0.7c0,0,0,0,0,0l-0.1-0.2c-0.2-0.3-0.6-0.3-0.9-0.2l-10.4,6
			c-0.3,0.1-0.3,0.5-0.2,0.7c0,0,0,0,0,0.1l0.1,0.2C193.7,331.1,194,331.2,194.3,331z"/>
		<path class="st12" d="M213.4,320l1.5-0.9c0.3-0.1,0.4-0.5,0.2-0.7c0,0,0,0,0,0l-0.2-0.2c-0.2-0.3-0.6-0.4-0.9-0.2l-1.5,0.9
			c-0.3,0.1-0.4,0.5-0.2,0.7c0,0,0,0,0,0l0.2,0.2C212.8,320.1,213.1,320.2,213.4,320z"/>
		<path class="st12" d="M195.2,332.9l8.9-5.1c0.1-0.1,0.1-0.2,0.1-0.3c0,0,0,0,0,0l-0.1-0.1c-0.1-0.1-0.2-0.1-0.3-0.1l-8.9,5.1
			c-0.1,0.1-0.1,0.2-0.1,0.3c0,0,0,0,0,0l0.1,0.1C195,332.9,195.1,333,195.2,332.9z"/>
		<path class="st12" d="M198.4,336.8l10.4-6c0.3-0.1,0.3-0.5,0.2-0.7c0,0,0,0,0-0.1l-0.1-0.2c-0.2-0.3-0.6-0.3-0.9-0.2l-10.4,6
			c-0.3,0.1-0.3,0.5-0.2,0.7c0,0,0,0,0,0l0.1,0.2C197.7,336.9,198.1,336.9,198.4,336.8z"/>
		<path class="st12" d="M217.5,325.8l1.5-0.9c0.3-0.1,0.3-0.5,0.2-0.7c0,0,0,0,0-0.1l-0.1-0.2c-0.2-0.3-0.6-0.3-0.9-0.2l-1.5,0.9
			c-0.3,0.1-0.3,0.5-0.2,0.7c0,0,0,0,0,0.1l0.1,0.2C216.8,325.8,217.2,325.9,217.5,325.8z"/>
		<path class="st12" d="M199.3,338.7l8.9-5.1c0.1-0.1,0.1-0.2,0.1-0.3c0,0,0,0,0,0l-0.1-0.1c-0.1-0.1-0.2-0.1-0.3-0.1l-8.8,5.1
			c-0.1,0.1-0.1,0.2-0.1,0.3c0,0,0,0,0,0l0.1,0.1C199.1,338.7,199.2,338.7,199.3,338.7z"/>
		<path class="st12" d="M202.4,342.6l10.4-6c0.3-0.1,0.3-0.5,0.2-0.7c0,0,0,0,0-0.1l-0.1-0.2c-0.2-0.3-0.6-0.3-0.9-0.2l-10.4,6
			c-0.3,0.1-0.3,0.5-0.2,0.7c0,0,0,0,0,0.1l0.1,0.2C201.8,342.6,202.1,342.7,202.4,342.6z"/>
		<path class="st12" d="M221.5,331.5l1.5-0.9c0.3-0.1,0.4-0.5,0.2-0.7c0,0,0,0,0-0.1l-0.1-0.2c-0.2-0.3-0.6-0.4-0.9-0.2l-1.5,0.9
			c-0.3,0.1-0.4,0.5-0.2,0.7c0,0,0,0,0,0.1l0.2,0.2C220.9,331.6,221.2,331.7,221.5,331.5z"/>
		<path class="st12" d="M203.3,344.5l8.9-5.1c0.1-0.1,0.1-0.2,0.1-0.3c0,0,0,0,0,0l-0.1-0.1c-0.1-0.1-0.2-0.1-0.3-0.1L203,344
			c-0.1,0.1-0.1,0.2-0.1,0.3c0,0,0,0,0,0l0.1,0.1C203.1,344.5,203.2,344.5,203.3,344.5z"/>
		<path class="st12" d="M206.5,348.3l10.4-6c0.3-0.1,0.3-0.5,0.2-0.7c0,0,0,0,0-0.1l-0.1-0.2c-0.2-0.3-0.6-0.4-0.9-0.2l-10.4,6
			c-0.3,0.1-0.3,0.5-0.2,0.7c0,0,0,0,0,0l0.1,0.2C205.8,348.4,206.2,348.5,206.5,348.3z"/>
		<path class="st12" d="M225.6,337.3l1.5-0.9c0.3-0.1,0.3-0.5,0.2-0.7c0,0,0,0,0-0.1l-0.1-0.2c-0.2-0.3-0.6-0.3-0.9-0.2l-1.5,0.9
			c-0.3,0.1-0.3,0.5-0.2,0.7c0,0,0,0,0,0.1l0.1,0.2C224.9,337.4,225.3,337.5,225.6,337.3z"/>
		<path class="st12" d="M207.4,350.3l8.9-5.1c0.1-0.1,0.1-0.2,0.1-0.3c0,0,0,0,0,0l-0.1-0.1c-0.1-0.1-0.2-0.1-0.3-0.1l-8.9,5.1
			c-0.1,0.1-0.1,0.2-0.1,0.3c0,0,0,0,0,0l0.1,0.1C207.1,350.3,207.3,350.3,207.4,350.3z"/>
		<path class="st12" d="M210.5,354.1l10.4-6c0.3-0.1,0.3-0.5,0.2-0.7c0,0,0,0,0-0.1l-0.1-0.2c-0.2-0.3-0.6-0.3-0.9-0.2l-10.4,6
			c-0.3,0.1-0.3,0.5-0.2,0.7c0,0,0,0,0,0.1l0.1,0.2C209.9,354.2,210.2,354.3,210.5,354.1z"/>
		<path class="st12" d="M229.6,343.1l1.5-0.9c0.3-0.1,0.3-0.5,0.2-0.7c0,0,0,0,0,0l-0.1-0.2c-0.2-0.3-0.6-0.3-0.9-0.2l-1.5,0.9
			c-0.3,0.1-0.3,0.5-0.2,0.7c0,0,0,0,0,0.1l0.1,0.2C229,343.2,229.3,343.3,229.6,343.1z"/>
		<path class="st12" d="M211.4,356l8.9-5.1c0.1-0.1,0.1-0.2,0.1-0.3c0,0,0,0,0,0l-0.1-0.1c-0.1-0.1-0.2-0.1-0.3-0.1l-8.9,5.1
			c-0.1,0.1-0.1,0.2-0.1,0.3c0,0,0,0,0,0l0.1,0.1C211.2,356,211.3,356.1,211.4,356z"/>
		<path class="st12" d="M214.6,359.9l10.4-6c0.3-0.1,0.3-0.5,0.2-0.7c0,0,0,0,0-0.1l-0.1-0.2c-0.2-0.3-0.6-0.3-0.9-0.2l-10.4,6
			c-0.3,0.1-0.4,0.5-0.2,0.7c0,0,0,0,0,0l0.2,0.2C213.9,360,214.3,360.1,214.6,359.9z"/>
		<path class="st12" d="M233.7,348.9l1.5-0.9c0.3-0.1,0.3-0.5,0.2-0.7c0,0,0,0,0-0.1l-0.1-0.2c-0.2-0.3-0.6-0.4-0.9-0.2l-1.5,0.9
			c-0.3,0.1-0.3,0.5-0.2,0.7c0,0,0,0,0,0.1l0.1,0.2C233,348.9,233.4,349,233.7,348.9z"/>
		<path class="st12" d="M215.5,361.8l8.9-5.1c0.1-0.1,0.1-0.2,0.1-0.3c0,0,0,0,0,0l-0.1-0.1c-0.1-0.1-0.2-0.1-0.3-0.1l-8.9,5.1
			c-0.1,0.1-0.1,0.2-0.1,0.3c0,0,0,0,0,0l0.1,0.1C215.2,361.8,215.4,361.9,215.5,361.8z"/>
		<path class="st12" d="M210.4,313l-2.4,1.3c-0.1,0.1-0.3,0-0.3-0.1l0,0c-0.1-0.1,0-0.2,0.1-0.3c0,0,0,0,0,0l2.4-1.4
			c0.1-0.1,0.3,0,0.3,0.1l0,0C210.5,312.7,210.5,312.9,210.4,313C210.4,313,210.4,313,210.4,313z"/>
		<path class="st12" d="M210.9,313.7l-2.4,1.4c-0.1,0.1-0.3,0-0.3-0.1l0,0c-0.1-0.1-0.1-0.2,0-0.3c0,0,0,0,0,0l2.4-1.4
			c0.1-0.1,0.3,0,0.3,0.1l0,0C211.1,313.5,211,313.6,210.9,313.7C210.9,313.7,210.9,313.7,210.9,313.7z"/>
		<path class="st12" d="M211.5,314.5l-2.4,1.4c-0.1,0.1-0.3,0-0.3-0.1l0,0c-0.1-0.1,0-0.2,0.1-0.3c0,0,0,0,0,0l2.4-1.4
			c0.1-0.1,0.3,0,0.3,0.1l0,0C211.6,314.3,211.6,314.4,211.5,314.5C211.5,314.5,211.5,314.5,211.5,314.5z"/>
		<path class="st12" d="M206,314.5c-0.1,0-0.1,0-0.1-0.1c-0.1-0.1-0.1-0.1,0-0.2l1.5-0.8c0.1-0.1,0.2-0.1,0.2,0s0.1,0.2,0,0.2
			c0,0,0,0-0.1,0L206,314.5L206,314.5z"/>
		<path class="st12" d="M207.2,314.7c0,0-0.1,0-0.1-0.1l-1-1.4c0-0.1,0-0.2,0-0.2s0.2,0,0.2,0l0,0l1,1.4c0.1,0.1,0.1,0.1,0,0.2
			c0,0,0,0,0,0C207.3,314.7,207.2,314.8,207.2,314.7z"/>
		<path class="st12" d="M186,321.8l0.5-0.8c0,0,0.1-0.1,0.1,0c0,0,0,0,0,0l0.6,0.8c0,0.1,0,0.1,0,0.1c0,0,0,0,0,0h-1
			C186.1,322,186,321.9,186,321.8C186,321.9,186,321.8,186,321.8z"/>
		<path class="st12" d="M186.5,321.8c-0.1,0-0.1-0.1-0.1-0.2c0,0,0-0.1,0.1-0.1l1.5-0.9c0.1,0,0.2,0,0.2,0.1c0,0.1,0,0.2-0.1,0.2
			L186.5,321.8C186.6,321.7,186.5,321.8,186.5,321.8z"/>
		<path class="st12" d="M224.3,313.6l3.6,1.8c0.2,0.1,0.3,0.3,0.2,0.5c0,0.1-0.1,0.1-0.2,0.2l-3.4,2c-0.2,0.1-0.4,0-0.6-0.2
			c0-0.1,0-0.1-0.1-0.2l-0.3-3.8c0-0.2,0.1-0.4,0.3-0.5C224.1,313.5,224.2,313.5,224.3,313.6z"/>
		<path class="st12" d="M229.2,321.7c-0.2,0-0.4-0.1-0.5-0.3l-3.9-5.5c-0.2-0.3-0.1-0.6,0.1-0.8c0.3-0.2,0.6-0.1,0.8,0.1l3.9,5.5
			c0.2,0.3,0.1,0.6-0.1,0.8C229.4,321.7,229.3,321.7,229.2,321.7z"/>
		<path class="st12" d="M239,335.7l-3.6-1.8c-0.2-0.1-0.3-0.3-0.2-0.5c0-0.1,0.1-0.1,0.2-0.2l3.4-2c0.2-0.1,0.4,0,0.6,0.2
			c0,0.1,0,0.1,0.1,0.2l0.3,3.8c0,0.2-0.1,0.4-0.3,0.5C239.2,335.8,239.1,335.8,239,335.7z"/>
		<path class="st12" d="M238,334.2c-0.2,0-0.4-0.1-0.5-0.3l-3.9-5.5c-0.2-0.2-0.2-0.6,0.1-0.8s0.6-0.2,0.8,0.1c0,0,0,0,0,0.1
			l3.9,5.5c0.2,0.3,0.1,0.6-0.1,0.8c0,0,0,0,0,0C238.2,334.2,238.1,334.2,238,334.2z"/>
		<path class="st12" d="M187.8,360.5c1.6-0.9,2.8-2.2,3.6-3.8c0.9-1.5,1.6-3.1,2.1-4.8c0.9-3.1,0.9-6.4,0-9.5
			c-0.1-0.2-0.4-0.3-0.4,0c0.5,3,0.4,6.2-0.3,9.2c-0.5,1.7-1.2,3.4-2.2,4.9c-0.9,1.4-1.9,2.7-2.9,3.9
			C187.8,360.3,187.8,360.5,187.8,360.5L187.8,360.5z"/>
		<path class="st12" d="M191.2,345.7c0.7-0.4,1.3-1,1.6-1.7c0.5-0.8,0.7-1.7,0.8-2.7l-0.6-0.2c0.2,0.9,0.5,1.8,1,2.6
			c0.2,0.4,0.5,0.8,0.8,1.1c0.2,0.2,0.3,0.4,0.5,0.5c0.1,0.2,0.4,0.3,0.6,0.3c0.1,0,0.1-0.2,0.1-0.2c-0.2-0.4-0.5-0.7-0.8-1
			c-0.3-0.3-0.5-0.6-0.8-1c-0.4-0.7-0.7-1.5-0.9-2.3c0-0.2-0.5-0.4-0.6-0.1c-0.1,0.9-0.3,1.8-0.7,2.6c-0.3,0.7-0.7,1.3-1.3,1.9
			C191,345.6,191,345.9,191.2,345.7L191.2,345.7z"/>
		<path class="st12" d="M92.3,365.3l-0.7,0.4l-1.2-1.7c-0.4-0.6-1.3-0.8-1.9-0.4l-1.4,0.8c-0.6,0.3-0.8,1-0.5,1.6
			c0,0,0.1,0.1,0.1,0.1l1.2,1.7l-0.7,0.4c-0.1,0.1-0.2,0.2-0.1,0.4c0,0,0,0,0,0l2,2.8c0.6,0.9,1.9,1.2,2.8,0.6l2.2-1.3
			c0.9-0.5,1.2-1.5,0.7-2.4c0-0.1-0.1-0.1-0.1-0.2l-2-2.8C92.6,365.3,92.4,365.2,92.3,365.3z M87.4,365.7c-0.1-0.2-0.1-0.4,0.1-0.6
			c0,0,0,0,0,0l1.4-0.8c0.2-0.1,0.5-0.1,0.6,0.1l1.2,1.7l-2.2,1.3L87.4,365.7z M91.9,369.4l0.6,0.7l-0.8,0.4l-0.5-0.8
			c-0.4,0.1-0.8-0.1-1-0.4c-0.3-0.4-0.2-0.9,0.2-1.1c0,0,0,0,0.1,0c0.4-0.2,1-0.1,1.3,0.3C92.1,368.7,92.2,369.1,91.9,369.4
			L91.9,369.4z"/>
		<path class="st12" d="M141.3,357.3c-1.4-0.9-2.9-1.7-4.6-2.3c-1.5-0.6-3.1-1.1-4.7-1.5c-3-0.8-6-1.4-9.1-1.6
			c-3.4-0.1-6.8,0.4-10.1,1.5c-1.6,0.5-3.2,1.2-4.8,1.9c-1.4,0.6-2.7,1.3-3.9,2.2c-1.3,1-2.3,2.2-3.1,3.6c-0.4,0.7-0.7,1.4-0.9,2.1
			c-0.1,0.8-0.1,1.6,0,2.3c0,0.3,0.4,0.4,0.4,0.1c0.1-0.5,0.2-0.9,0.4-1.3c0.1-0.4,0.2-0.7,0.3-1.1c0.2-0.6,0.5-1.2,0.8-1.8
			c0.7-1.1,1.6-2.2,2.7-3c1.1-0.9,2.3-1.6,3.6-2.2c1.4-0.7,2.8-1.3,4.3-1.8c3-1.1,6.1-1.7,9.3-1.8c3.1,0.1,6.2,0.5,9.2,1.3
			c3.4,0.8,6.7,1.9,9.9,3.4C141.4,357.7,141.4,357.4,141.3,357.3L141.3,357.3z"/>
		<path class="st12" d="M98.1,362.9c0.3,0.6,0.7,1.3,1.1,1.8c0.4,0.6,0.7,1.1,1.1,1.7c0.1,0.2,0.5,0.4,0.7,0.1
			c1.1-1.8,2.8-3.1,4.9-3.5c0.4-0.1,0-0.8-0.4-0.7c0.4-0.1,0,0-0.1,0c-0.1,0-0.2,0-0.4,0.1c-0.3,0.1-0.6,0.2-0.9,0.3
			c-0.5,0.2-1,0.5-1.5,0.8c-1,0.6-1.8,1.5-2.3,2.5l0.7,0.1c-0.4-0.6-0.8-1.2-1.2-1.8c-0.4-0.6-0.9-1.2-1.4-1.8
			C98.2,362.3,98,362.7,98.1,362.9L98.1,362.9z"/>
		<path class="st12" d="M189.8,285.2l24.6-14.2c0.6-0.3,0.8-1.1,0.5-1.7c0-0.1-0.1-0.1-0.1-0.1l-0.4-0.5c-0.5-0.6-1.3-0.8-2-0.5
			l-24.6,14.2c-0.6,0.3-0.8,1.1-0.5,1.7c0,0,0.1,0.1,0.1,0.1l0.4,0.5C188.3,285.4,189.2,285.5,189.8,285.2z"/>
		<path class="st12" d="M191.5,289l21.2-12.3c0.2-0.1,0.3-0.4,0.2-0.7c0,0,0,0,0-0.1l-0.1-0.2c-0.2-0.3-0.5-0.3-0.8-0.2l-21.2,12.3
			c-0.2,0.1-0.3,0.4-0.2,0.7c0,0,0,0,0,0l0.1,0.2C190.9,289.1,191.2,289.1,191.5,289z"/>
		<path class="st12" d="M176.4,312.4c-0.7,0-1.4-0.3-1.8-0.9l-10.7-15.3c-0.3-0.4-0.4-1-0.3-1.5c0.1-0.5,0.4-0.9,0.9-1.2l16.2-9.3
			c1-0.5,2.2-0.3,2.9,0.6l10.7,15.3c0.3,0.4,0.4,1,0.3,1.5c-0.1,0.5-0.4,0.9-0.9,1.2l-16.2,9.3C177.1,312.3,176.7,312.4,176.4,312.4
			z M181.6,284.4c-0.3,0-0.5,0.1-0.8,0.2l-16.2,9.4c-0.3,0.2-0.5,0.5-0.6,0.8c-0.1,0.3,0,0.7,0.2,1l10.7,15.3
			c0.5,0.7,1.4,0.9,2.1,0.5l16.2-9.3c0.3-0.2,0.5-0.5,0.6-0.8c0.1-0.3,0-0.7-0.2-1l-10.7-15.3C182.6,284.7,182.1,284.5,181.6,284.4
			L181.6,284.4z"/>
		<path class="st2" d="M170.3,296.6l7.7,7.4c-0.2,0.1-0.4,0.2-0.6,0.4c-0.9,0.6-1,1.9-0.4,2.7c0,0.1,0.1,0.1,0.1,0.2
			c0.9,0.8,2.3,0.7,3.1-0.1c0.8-0.6,1-1.9,0.4-2.7c0-0.1-0.1-0.1-0.1-0.2l-6.3-6l5.8-5.1l0,0l4.9,4.7c-0.2,0.1-0.5,0.2-0.6,0.4
			c-0.8,0.7-1,1.9-0.4,2.7c0,0.1,0.1,0.1,0.1,0.1c0.9,0.8,2.3,0.7,3.1-0.1c0.8-0.6,1-1.9,0.4-2.7c0-0.1-0.1-0.1-0.1-0.2l0,0
			l-9.1-8.8L170.3,296.6z"/>
		<path class="st12" d="M216,284.3c-0.6,0.2-1.2,0.6-1.6,1c-0.4,0.2-0.7,0.3-1.1,0.4c-0.3,0.2-0.4,0.5-0.7,0.8
			c-0.4,0.4-1.1,0-1.4,0.6c-0.1,0.3-0.2,1.3-0.9,0.7c-0.2-0.2-0.4-0.5-0.6-0.8c-0.1-0.2-0.5-0.3-0.6,0c-0.2,0.7-0.1,1.6-0.5,2.2
			c-0.2,0.3-0.5,0.3-0.7,0.2c0.2-0.7,0.2-1.4,0-2.1c-0.1-0.2-0.3-0.3-0.5-0.2c-0.9,0.5-0.7,1.8-0.1,2.5c-0.2,0.4-0.5,0.7-0.9,0.9
			c-0.3,0.1-0.7,0.1-0.9,0.4c-0.2,0.3-0.2,0.6-0.4,0.9c-0.2-0.2-0.4-0.3-0.5-0.5s-0.2-0.1-0.3,0c-0.2,0.3-0.3,0.6-0.5,0.8
			c-0.3-0.8-0.5-1.6-1.4-2c0,0-0.1,0-0.1,0c-0.4,0.5-0.7,1.1-0.8,1.7c0,0.1,0.2,0.3,0.3,0.1c0.1-0.4,0.2-0.8,0.4-1.1
			c0.2-0.3,0.3-0.6,0.9,0.1c0.2,0.5,0.5,1,0.6,1.5c0,0.1,0.2,0.3,0.3,0.2c0.2-0.3,0.5-0.6,0.6-0.9c0.2,0.1,0.3,0.3,0.5,0.5
			c0.1,0.1,0.2,0.2,0.3,0.1c0.4-0.3,0.4-0.9,0.8-1.2c0.5-0.2,1-0.2,1.4-0.8c0.1-0.1,0.1-0.2,0.2-0.3c0.2,0.1,0.3,0.2,0.5,0.2
			c1.2,0.2,1.4-1.1,1.5-2.1c0.2,0.3,0.5,0.5,0.8,0.6c0.5,0.2,1.1-0.2,1.2-0.7c0-0.1,0-0.1,0-0.2c0.1-0.3,0.1-0.5,0.5-0.6
			c0.1,0,0.3,0,0.4,0c0.4-0.1,0.5-0.5,0.7-0.7s0.9-0.4,1.3-0.7c0.4-0.4,0.9-0.8,1.5-1C216.5,284.6,216.2,284.2,216,284.3z"/>
		<path class="st12" d="M225.3,278.5c-0.3,0.4-0.4,0.9-0.7,1.3c-0.4,0.4-1,0.5-1.5,0.1c-0.1,0-0.3-0.1-0.3,0
			c-0.2,0.3-0.3,0.7-0.4,1.1c-0.4,0-0.7-0.1-1-0.3c-0.1-0.1-0.4-0.3-0.5-0.1c-0.2,0.4-0.3,0.8-0.8,1s-1-0.2-1.3-0.5
			c-0.1-0.2-0.6-0.3-0.6,0c0,0.4,0,0.8,0,1.3c0,0.2,0,0.4-0.1,0.6c-0.2,0.3-0.6,0.4-0.7,0s-0.8-0.5-0.7-0.1c0.1,0.6,0.8,1,1.4,0.9
			c0.2,0,0.4-0.1,0.5-0.3c0.5-0.5,0.4-1.1,0.3-1.7c0.4,0.3,0.8,0.4,1.3,0.4c0.6,0,1-0.4,1.2-0.9c0.4,0.2,0.9,0.4,1.4,0.4
			c0.1,0,0.2,0,0.2-0.1c0.1-0.3,0.2-0.7,0.3-1c0.5,0.3,1.1,0.3,1.6,0c0.6-0.4,0.9-1.1,0.9-1.8C225.7,278.5,225.4,278.3,225.3,278.5z
			"/>
		<path class="st12" d="M216.1,290.2c-0.5,0-1.8-0.5-2.2,0c0,0.1,0,0.2-0.1,0.3c-0.1,0.3-0.3,0.5-0.5,0.6c-0.5,0.4-0.9,0-1.3-0.3
			c-0.1-0.1-0.2-0.1-0.3,0c-0.6,0.6-0.5,1.4-1,2.1c-0.2,0.3-0.5,0.5-0.9,0.4c-0.2,0-0.4,0-0.6,0c-0.6,0.2-0.7,0.6-0.8,1.1
			c-0.3,1-1-0.2-1.4-0.5c-0.2-0.1-0.4-0.2-0.5,0c-0.4,0.8-0.6,2.2-1.5,2.6l0,0c0-0.2-0.4-0.4-0.4-0.2c0,0.1,0,0.3,0,0.4
			c0,0.2,0.2,0.3,0.3,0.3c1.3-0.2,1.6-1.6,2.1-2.6c0.4,0.5,0.7,1,1.5,0.9s0.6-0.9,1-1.3s0.5-0.1,0.9-0.1c0.3,0,0.5,0,0.8-0.2
			c0.8-0.6,0.7-1.6,1.1-2.4c0.7,0.4,1.2,0.6,1.8,0c0.2-0.2,0.4-0.7,0.6-0.8c0.6-0.2,1.2,0.3,1.8,0.1
			C216.6,290.5,216.2,290.2,216.1,290.2z"/>
		<path class="st12" d="M225.3,283.8c-0.2,0.3-0.4,0.6-0.7,0.7c-0.4,0.1-0.7,0-1.1-0.1c-0.1-0.1-0.4-0.1-0.4,0.1
			c-0.3,0.8-1.1,2.4-2.2,1.2c-0.1-0.2-0.6-0.3-0.6,0c-0.1,0.5-0.3,0.9-0.5,1.3c-0.1,0.2-0.3,0.4-0.5,0.5c-0.2,0.1-0.3-0.2-0.4-0.4
			c-0.1-0.2-0.6-0.4-0.7-0.1c-0.1,0.5-0.4,1-0.7,1.3c-0.1,0.1-0.3,0.4-0.5,0.4c-0.2,0,0,0,0,0s-0.2-0.3-0.3-0.4
			c-0.1-0.3-1-0.4-0.8,0c0.3,0.8,1.1,1.4,1.9,0.8c0.4-0.3,0.7-0.8,0.9-1.3c0.4,0.3,0.9,0.3,1.3,0c0.4-0.4,0.7-0.9,0.9-1.5
			c0.5,0.3,1.1,0.4,1.6,0.2c0.6-0.3,1-0.9,1.1-1.5c0.4,0.2,0.8,0.2,1.2,0.1c0.5-0.1,0.8-0.5,0.9-0.9
			C225.8,283.9,225.5,283.6,225.3,283.8z"/>
		<path class="st12" d="M227.9,282.6c0,0-0.1,0-0.1,0l-0.2,0c0,0-0.1,0-0.1,0h-0.2h-0.1l0,0c-0.1,0-0.1,0-0.2,0c0,0-0.1,0.1-0.1,0.1
			c0,0.1,0,0.1,0.1,0.2c0,0.1,0.1,0.1,0.2,0.1c0.2,0,0.3,0,0.5,0c0.1,0,0.1,0,0.2-0.1c0.1,0,0.1-0.1,0.2-0.2l0,0c0,0,0,0,0-0.1
			C228,282.8,228,282.7,227.9,282.6L227.9,282.6z"/>
		<path class="st12" d="M219.3,294.5c-0.7,0.2-1.4,0.2-2.1,0c0,0-0.1,0-0.1,0c-0.2,0.5-0.2,0.9-0.6,1.3c-0.5,0.4-1.2,0.3-1.7-0.1
			c-0.1-0.1-0.4-0.1-0.4,0.1s0,1.1-0.2,0.9s-0.4-0.1-0.4,0c0,0.4-0.1,0.7-0.3,1c-0.1,0.1-0.3,0.2-0.5,0.3c-0.2,0-0.3,0-0.5,0
			c-0.2,0-0.4,0-0.5,0.1s-0.3,0.8-0.6,0.5c-0.1-0.1-0.4-0.3-0.5,0c0,0.2-0.1,0.3-0.1,0.5c-0.1,0.4-0.3,0.6-0.7,0.5
			c-0.4-0.1-0.5-0.4-0.8-0.6c-0.1-0.1-0.3-0.1-0.4,0c-0.4,0.7-0.5,1.5-1.2,2c-0.1,0.1,0.1,0.4,0.3,0.3c0.6-0.5,1-1.1,1.3-1.8
			c0.3,0.3,0.5,0.7,1.1,0.7c0.5,0,0.9-0.5,1-1c0.1,0.1,0.3,0.1,0.5,0.1c0.1-0.1,0.3-0.2,0.4-0.4c0-0.1,0.1-0.1,0.1-0.2
			c0.1-0.2,0-0.1,0.2-0.2c0.2,0,0.3,0,0.5,0c0.2-0.1,0.5-0.2,0.6-0.3c0.3-0.3,0.4-0.6,0.5-1c0.5,0.2,0.6-0.5,0.6-1
			c0.5,0.3,1.1,0.4,1.7,0.2c0.6-0.2,1-0.9,0.9-1.5c0.7,0.2,1.4,0.2,2,0C219.7,294.7,219.5,294.4,219.3,294.5z"/>
		<path class="st12" d="M230.2,288c-0.1,0-0.3,0-0.4,0.1l-0.4,0.2c-0.3,0.1-0.5,0.2-0.8,0.2l-0.9,0.2c0,0-0.1-0.1-0.1,0l0,0
			c-0.2,0.1-0.5,0.1-0.7,0.2c-0.2,0.1,0,0.3,0.1,0.2c0.1,0,0.3-0.1,0.4-0.1l0,0c0,0.1-0.1,0.1-0.1,0.2c0,0-0.1,0.1-0.1,0.1
			c0,0-0.1,0.1-0.2,0.1h-0.1H227c-0.1,0-0.3-0.1-0.4-0.2c0,0-0.1-0.1-0.2,0c0,0,0,0.1,0,0.1c0,0,0,0,0,0c-0.1,0.5,0,1.1-0.3,1.5
			c-0.3,0.4-0.8,0.6-1.3,0.6h-0.2c0-0.1,0-0.1,0-0.2c-0.1-0.3-0.3-0.5-0.6-0.6c-0.2,0-0.3,0.1-0.3,0.3c0,0.2,0.1,0.5,0.3,0.6
			c-0.2,0.4-1,0.6-1.1,0.1c0-0.1-0.4-0.3-0.4-0.1c0,0.5-0.1,0.9-0.2,1.3c-0.3,0.4-0.8,0.4-1.2,0.2c-0.5-0.1-0.3,0.4,0,0.5
			c0.6,0.4,1.4,0.3,1.8-0.3c0.2-0.3,0.3-0.7,0.2-1.1c0.4,0.3,0.9,0.3,1.3,0c0.1-0.1,0.2-0.2,0.3-0.3c0.6,0.1,1.1,0.1,1.7-0.2
			c0.7-0.3,1-1.2,0.7-1.9c0,0,0-0.1-0.1-0.1c0.3,0.2,0.7,0.1,0.9-0.2c0-0.1,0.1-0.1,0.1-0.2c0-0.1,0-0.2,0-0.3l1.1-0.2
			c0.3,0,0.6-0.1,0.9-0.2c0.2-0.1,0.6-0.2,0.6-0.5C230.3,288.1,230.3,288,230.2,288z"/>
		<path class="st12" d="M184.5,380.8c-0.4,0.6-1.3,1.3-2.1,0.6c-0.1-0.1-0.3-0.1-0.3,0c-0.1,0.5-0.2,1-0.4,1.5
			c-0.2,0.4-0.9,1.7-1.4,0.7c-0.1-0.2-0.5-0.4-0.6-0.1c-0.3,0.8-0.4,2-1.5,2.3c-0.2,0.1-0.4,0.1-0.6,0c0.2-0.4,0.2-0.8,0-1.2
			c-0.1-0.2-0.3-0.3-0.6-0.3c-0.5,0.1-0.8,0.6-0.7,1c0,0.2,0.1,0.3,0.3,0.5c0,0,0,0-0.1,0.1c-0.4,0.3-0.9,0.5-1.4,0.7
			c-0.3,0.1-0.5,0-0.7,0.3s0,0.5-0.2,0.6c-0.3,0.2-0.7,0.2-1,0.1c-0.1-0.1-0.3-0.1-0.3-0.1c-0.2,0.3-0.4,0.6-0.6,1
			c-0.3,0.5-0.6,1.1-1.1,0.3c-0.1-0.1-0.3-0.2-0.4-0.1c-0.3,0.6-0.7,1.1-1.2,1.6c-0.5-0.7-0.9-1.8-1.8-1.9c-1.1-0.1-1.4,1.4-1.5,2.1
			c0,0.1,0.2,0.3,0.3,0.1c0.1-0.6,0.6-2.5,1.7-1.7c0.6,0.4,0.8,1.2,1.2,1.7c0.1,0.1,0.2,0.1,0.3,0.1c0.5-0.4,1-0.9,1.3-1.6
			c0.3,0.3,0.6,0.6,1.1,0.3s0.7-1.1,1.1-1.6c0.4,0.2,0.8,0.2,1.2,0c0.3-0.1,0.5-0.2,0.6-0.5c0-0.1,0-0.3,0.1-0.4s0.4,0,0.6-0.1
			c0.6-0.1,1.1-0.4,1.6-0.8c0.1,0,0.1,0.1,0.2,0.1c1.5,0.5,2.5-0.9,2.8-2.1c0.4,0.4,1,0.4,1.4,0c0,0,0.1-0.1,0.1-0.1
			c0.6-0.6,0.9-1.4,0.9-2.2c0.9,0.4,2,0.2,2.3-0.8C184.8,380.9,184.6,380.6,184.5,380.8z"/>
		<path class="st12" d="M196.9,374.6c-0.3,0.7-1.3,1-2,1c-0.5,0-0.7,0.1-0.8,0.6c-0.1,0.3-0.2,0.4-0.5,0.5c-0.2,0.1-0.4,0.2-0.7,0.3
			c-0.7,0.2-1.4,0-1.8-0.5c-0.1-0.1-0.3-0.2-0.4-0.1c-0.2,0.5-0.4,0.9-0.8,1.2c-0.5,0.4-1.3,0.7-1.6,0c-0.1-0.2-0.6-0.3-0.5,0
			c0.2,0.6,0.1,1.3-0.2,1.9c-0.5,0.5-1.2,0.8-1.9,0.7c-0.4,0-0.1,0.5,0.2,0.5c0.8,0.2,1.6-0.1,2.2-0.6c0.4-0.5,0.5-1.1,0.4-1.7
			c0.4,0.2,1,0.2,1.4,0c0.6-0.2,1-0.7,1.3-1.3c1,0.6,2.3,0.6,3.2,0c0.2-0.1,0.4-0.3,0.4-0.5c0,0,0-0.3,0-0.3s0.5,0,0.6-0.1
			c0.4-0.1,0.8-0.2,1.1-0.4c0.4-0.1,0.7-0.4,0.8-0.8C197.4,374.6,197,374.3,196.9,374.6z"/>
		<path class="st12" d="M179.7,389.5c-0.4,0.5-1,2.1-2,1.2c-0.2-0.1-0.6-0.3-0.6,0c-0.2,0.9-1,1.5-1.9,1.4c-0.1,0-0.3-0.1-0.4-0.1
			c-0.1,0-0.2,0-0.3,0.1c-0.2,0.8-1.1,1.3-1.9,1c0,0-0.1,0-0.1,0c-0.1,0-0.2,0-0.2,0.1c0,0,0,0,0,0.1c0,0.6-0.4,0.7-0.8,1
			c-0.3,0-0.6,0-0.8,0.1c-0.3,0.2-0.4,0.5-0.5,0.8c-0.3-0.3-0.7-0.6-1.1-0.9c-0.1,0-0.1,0-0.2,0c-0.3,0.2-0.5,0.6-0.6,0.9
			c-0.1,0.1,0.2,0.4,0.3,0.3c0.1-0.3,0.3-0.5,0.6-0.7c0.4,0.3,0.7,0.6,1.1,0.9c0.1,0.1,0.2,0.1,0.3,0c0.1-0.1,0.2-0.6,0.4-0.8
			c0.2-0.1,0.4-0.2,0.6-0.2c0.1,0.1,0.2,0.1,0.3,0.1c0.6-0.4,0.9-0.4,1.1-1.1c0.9,0.3,1.9-0.2,2.3-1.1c1.1,0.4,2.2-0.1,2.7-1.2
			c0.4,0.3,1,0.3,1.4,0.1c0.6-0.3,1.1-0.9,1.1-1.6C180.3,389.6,179.9,389.3,179.7,389.5z"/>
		<path class="st12" d="M184.6,388.5L184.6,388.5l-0.1,0.1l-0.2,0.1c-0.1,0.1-0.3,0.2-0.4,0.3l0,0c-0.2-0.4-0.5-0.8-0.8-1.1
			c-0.3-0.3-0.6-0.6-0.9-1c-0.1-0.1-0.6-0.2-0.5,0.1c0.1,0.8-0.2,1.6-0.7,2.3c-0.1,0.2,0.3,0.6,0.5,0.4c0.4-0.5,0.7-1.2,0.8-1.8
			c0.3,0.3,0.5,0.7,0.8,1c0.1,0.2,0.3,0.4,0.4,0.7c-0.1,0.1-0.2,0.2-0.3,0.3c-0.4,0.5-0.6,1.2-0.4,1.8c0.1,0.2,0.3,0.3,0.6,0.3
			c0.4-0.1,0.8-0.3,1.1-0.7c0.1-0.3,0.1-0.7,0-1c0-0.1-0.1-0.2-0.1-0.4c0.1-0.1,0.2-0.2,0.3-0.3l0.3-0.3c0.1-0.1,0.2-0.2,0.3-0.3
			C185.2,388.7,184.8,388.4,184.6,388.5z"/>
		<path class="st12" d="M199.2,378.2c-0.6,0.2-1.5,0.3-1.8,0.9c-0.1,0.2,0,0.6-0.2,0.8s-0.5,0-0.8,0c-0.3,0-0.7,0.1-1,0.2
			c-0.4,0.1-0.7,0.1-1.1,0.2c-0.5,0-0.4,0.3-0.6,0.7s-0.6,0.6-0.9,1s0,0.5-0.4,0.6c-0.2,0-0.5-0.2-0.8-0.2c-0.3,0-0.7,0.4-0.9,0.7
			c-0.4,0.6-0.6,0.8-1.6,0.6c-0.1-0.1-0.3,0-0.4,0.1c-0.2,0.4-0.4,0.8-0.7,1.1c-0.4,0.3-0.9-0.1-1.3-0.3c-0.2-0.1-0.5-0.1-0.6,0.1
			c-0.3,0.8-1,2.2-2.1,1.3c-0.3-0.2-0.7,0-0.4,0.3c1.3,1.3,2.6,0.3,3.2-0.9c0.5,0.3,1,0.4,1.5,0.3c0.5-0.2,0.9-0.7,1.1-1.3
			c0.4,0.2,0.9,0.2,1.3,0c0.4-0.2,0.5-0.6,0.7-1c0.4-0.7,0.8,0,1.4-0.1c0.2,0,0.3-0.2,0.3-0.3c0.1-0.2,0.2-0.4,0.4-0.6
			c0.2-0.2,0.4-0.4,0.5-0.6c0.1-0.2,0.2-0.3,0.3-0.5c0.2-0.2,0.4-0.1,0.7-0.1c0.5-0.2,1-0.3,1.5-0.4c0.5,0,0.9,0.3,1.2-0.3
			c0.2-0.3,0-0.6,0.4-0.9c0.4-0.2,0.8-0.4,1.3-0.6C199.7,378.4,199.4,378.1,199.2,378.2z"/>
		<path class="st12" d="M142.2,359.6c-1.6,1.4-2.1,3.8-2.4,5.8c-0.4,2.6-0.4,5.2,0,7.8c0.5,2.7,1.4,5.4,2.7,7.8
			c1.5,2.9,3.5,5.4,6,7.4c2.5,2.2,5.6,3.4,8.9,3.4c0.3,0,0.1-0.4-0.1-0.4c-1.4-0.1-2.8-0.4-4.1-0.9c-1.3-0.5-2.5-1.2-3.5-2.1
			c-2.4-1.8-4.4-4.1-5.9-6.7c-1.4-2.4-2.4-4.9-3-7.6c-0.4-2.4-0.6-4.8-0.4-7.2c0-2.5,0.8-5,2.2-7.1
			C142.7,359.8,142.4,359.5,142.2,359.6L142.2,359.6z"/>
		<path class="st12" d="M152.2,393c1-0.3,2-0.5,3-0.7c1-0.1,1.9-0.2,2.9-0.1c0.3,0,0.4-0.3,0.2-0.4c-0.8-0.5-1.7-0.9-2.5-1.4
			c-0.4-0.2-0.8-0.5-1.2-0.8c-0.2-0.1-0.4-0.3-0.5-0.4l-0.2-0.2c-0.1-0.1-0.2-0.2-0.3-0.3s-0.1-0.1-0.2-0.1s-0.3-0.1-0.2,0.1
			c0.1,0.2,0,0.2,0,0.3c0.1,0.1,0.1,0.2,0.2,0.3c0.1,0.2,0.3,0.4,0.5,0.5c0.4,0.3,0.8,0.6,1.3,0.9c0.9,0.5,1.9,1,2.8,1.5l0.2-0.4
			c-1.1-0.1-2.1,0-3.2,0.1c-0.5,0.1-1.1,0.2-1.6,0.4c-0.5,0.1-0.9,0.3-1.4,0.5C151.8,392.8,152.1,393,152.2,393L152.2,393z"/>
		<path class="st12" d="M249.2,306.8c-0.1,0.4-0.1,0.9-0.5,1.1c-0.3,0.2-0.7,0.4-1.1,0.4c-0.8,0.1-1.6,0.1-2.4-0.1
			c-0.1,0-0.3,0-0.3,0.1c0,0.9-0.5,2.1-1.7,1.6c-0.1,0-0.2-0.1-0.3-0.1c0.2-0.6,0.1-1.2-0.3-1.7c-0.1-0.1-0.3-0.3-0.5-0.2
			c-0.8,0.5-0.6,1.3-0.1,1.8c-0.4,0.6-1.2,0.9-1.9,0.8c-0.2,0-0.3,0.1-0.3,0.2c0.1,0.6,0.3,1.5-0.3,1.8s-1.3,0-1.8-0.2
			c-0.1-0.1-0.5-0.1-0.5,0.1c0,0.5-0.2,0.9-0.3,1.3c-0.2-0.1-0.3-0.3-0.5-0.4c-0.1-0.1-0.6-0.3-0.6,0c0,0.3-0.1,0.6-0.2,0.8
			c-0.4-0.8-1.2-1.4-2.1-1.4c0,0-0.1,0-0.1,0.1c-0.3,0.4-0.1,0.6,0.1,1c0.1,0.2,0.5,0.3,0.4,0c0-0.1-0.3-0.5-0.1-0.6
			c0.2-0.3,0.9,0.2,1,0.3c0.4,0.4,0.6,0.9,0.8,1.4c0,0.2,0.5,0.4,0.5,0.1s0.2-0.7,0.3-1.1c0.2,0.1,0.3,0.3,0.4,0.4
			c0.2,0.2,0.5,0.3,0.6,0c0.2-0.5,0.3-1,0.4-1.4c0.6,0.3,1.4,0.4,2.1,0.2c0.8-0.4,0.8-1.3,0.6-2c0.8,0,1.5-0.3,2-0.9l0.1,0.1
			c0.5,0.3,1.1,0.3,1.7,0.2c0.6-0.3,1-1,1-1.7c1.6,0.3,5.3,0.2,4.2-1.8C249.6,306.7,249.2,306.5,249.2,306.8z"/>
		<path class="st12" d="M248.4,313.2c-0.4,0.1-0.6,0.4-0.9,0.6c-0.3,0.2-0.8,0.5-1.2,0.7c-0.8,0.4-1.6,0.6-2.4,1
			c-0.5,0.4-1,0.7-1.4,1.2c-0.5,0.5-1.4,0.6-2,0.2c-0.1-0.1-0.5-0.1-0.5,0.2c0,0.6-0.2,1.1-0.5,1.5c-0.1,0.2-0.3,0.3-0.5,0.4V319
			c0-0.1-0.1-0.3-0.2-0.4c-0.1-0.1-0.3-0.2-0.4-0.1c-0.5,0.7,0.5,1.4,1.2,1c0.6-0.4,1-1.1,1.1-1.9c0.5,0.2,1.1,0.2,1.6,0
			c0.6-0.3,1.1-0.7,1.6-1.2c0.7-0.5,1.5-0.9,2.4-1.1c0.9-0.4,1.7-0.9,2.5-1.6c0-0.1,0-0.1,0-0.2c0-0.1,0-0.1-0.1-0.1
			C248.6,313.3,248.5,313.2,248.4,313.2z"/>
		<path class="st12" d="M247.7,317.5c0.8,1.8,2.1,3.4,3,5.2c2.7,5.1,2.4,11.2-0.6,16c-0.5,0.8-1.1,1.5-1.7,2.2
			c-0.7,0.8-1.6,1.5-2.4,2.1c-0.3,0.2,0.1,0.6,0.4,0.5c1.7-0.8,3.2-2,4.1-3.6c1.1-1.5,1.9-3.2,2.4-5c1-3.8,0.7-7.8-0.9-11.3
			c-1-2.3-2.4-4.4-4-6.2C247.7,317.2,247.7,317.5,247.7,317.5L247.7,317.5z"/>
		<path class="st12" d="M247.2,339.5c-0.6,0.7-1,1.5-1.2,2.4c-0.2,0.7-0.6,1.3-1.1,1.9c-0.3,0.3,0.2,0.7,0.5,0.6
			c0.7-0.1,1.4-0.3,2-0.5c0.3-0.1,0.7-0.1,1-0.1c0.1,0,0.3,0,0.4,0.1c0.2,0.1,0.5,0.2,0.7,0.2c0,0,0.2-0.1,0.2-0.1s0-0.4-0.2-0.5
			l-0.1-0.1c-0.1-0.1-0.2-0.1-0.3-0.1c-0.2-0.1-0.4-0.1-0.6-0.1c-0.4,0-0.8,0-1.2,0.1c-0.7,0.1-1.5,0.4-2.1,0.5l0.5,0.6
			c0.5-0.6,0.9-1.3,1.1-2.1c0.3-0.8,0.5-1.6,0.8-2.4C247.7,339.6,247.5,339.3,247.2,339.5L247.2,339.5z"/>
		<path class="st12" d="M133.5,412c0.2,0.2,0.1,0.5-0.1,0.7c0,0,0,0,0,0c-0.3,0.1-0.6,0.1-0.8-0.2c-0.2-0.2-0.1-0.5,0.1-0.7
			c0,0,0,0,0.1,0C133,411.7,133.4,411.8,133.5,412z"/>
		<path class="st12" d="M135.2,411c0.2,0.2,0.1,0.5-0.1,0.7c0,0,0,0-0.1,0c-0.3,0.1-0.6,0.1-0.8-0.2c-0.2-0.2-0.1-0.5,0.1-0.7
			c0,0,0,0,0.1,0C134.7,410.7,135,410.8,135.2,411z"/>
		<path class="st12" d="M136.9,410c0.2,0.2,0.1,0.5-0.1,0.7c0,0,0,0-0.1,0c-0.3,0.1-0.6,0.1-0.8-0.2c-0.2-0.2-0.1-0.5,0.1-0.7
			c0,0,0,0,0.1,0C136.4,409.7,136.7,409.7,136.9,410z"/>
		<g id="mobile--inject-2_1_">
			<path class="st12" d="M123.5,422.7c-0.4,0-0.8-0.2-1-0.5l-31.4-44.8c-0.2-0.2-0.2-0.5-0.2-0.8c0.1-0.3,0.3-0.6,0.6-0.8l26.2-15.1
				c0.6-0.3,1.3-0.2,1.7,0.3L151,406c0.1,0.2,0.2,0.4,0.1,0.6c-0.1,0.3-0.4,0.6-0.7,0.8l-26.2,15.1
				C124,422.6,123.7,422.7,123.5,422.7z M118.5,361c-0.1,0-0.3,0-0.4,0.1l-26.2,15.1c-0.2,0.1-0.3,0.2-0.3,0.4c0,0.1,0,0.2,0.1,0.3
				l31.4,44.8c0.2,0.3,0.6,0.3,0.9,0.1l26.2-15.1c0.4-0.2,0.4-0.4,0.4-0.4s0,0,0-0.1L119,361.3C118.9,361.1,118.7,361,118.5,361
				L118.5,361z"/>
		</g>
		<path class="st12" d="M110.1,384.9l8.9-5.1c0.1-0.1,0.1-0.2,0.1-0.3c0,0,0,0,0,0v-0.1c-0.1-0.1-0.2-0.1-0.3-0.1l-8.9,5.1
			c-0.1,0.1-0.1,0.2-0.1,0.3c0,0,0,0,0,0l0.1,0.1C109.9,384.9,110,385,110.1,384.9z"/>
		<path class="st12" d="M130.4,406.5l-2.6-3.8c-0.2-0.3-0.6-0.3-0.9-0.2l-0.2,0.1c-0.3,0.1-0.3,0.5-0.2,0.7c0,0,0,0,0,0l2.6,3.8
			c0.2,0.3,0.6,0.3,0.9,0.2l0.2-0.1C130.5,407.1,130.6,406.8,130.4,406.5C130.4,406.5,130.4,406.5,130.4,406.5z"/>
		<path class="st12" d="M133.1,404.9l-2.6-3.8c-0.2-0.3-0.6-0.4-0.9-0.2l-0.2,0.1c-0.3,0.1-0.4,0.5-0.2,0.7c0,0,0,0,0,0.1l2.6,3.8
			c0.2,0.3,0.6,0.3,0.9,0.2l0.2-0.1C133.2,405.6,133.2,405.2,133.1,404.9C133.1,405,133.1,404.9,133.1,404.9z"/>
		<path class="st12" d="M123.7,407.9l2.3,0c0.1,0,0.2-0.1,0.2-0.2c0,0,0-0.1,0-0.1l-1.3-1.8c-0.1-0.1-0.2-0.1-0.3-0.1
			c0,0,0,0-0.1,0.1l-1,1.8c-0.1,0.1-0.1,0.2,0,0.3C123.5,407.9,123.6,407.9,123.7,407.9z"/>
		<path class="st12" d="M124.3,408.9l-1.5-2.1c-0.1-0.1-0.3-0.2-0.5-0.1l-0.1,0.1c-0.1,0.1-0.2,0.3-0.1,0.4c0,0,0,0,0,0l1.5,2.1
			c0.1,0.1,0.3,0.2,0.5,0.1l0.1-0.1C124.3,409.2,124.4,409,124.3,408.9C124.3,408.9,124.3,408.9,124.3,408.9z"/>
		<path class="st12" d="M136.1,400.8l-1,1.8c-0.1,0.1-0.2,0.1-0.3,0.1c0,0-0.1,0-0.1-0.1l-1.3-1.8c-0.1-0.1,0-0.2,0.1-0.3
			c0,0,0.1,0,0.1,0l2.3-0.1c0.1,0,0.2,0.1,0.2,0.2C136.2,400.7,136.1,400.7,136.1,400.8z"/>
		<path class="st12" d="M136.8,401.6l-1.5-2.1c-0.1-0.1-0.1-0.3,0.1-0.4c0,0,0,0,0,0l0.1-0.1c0.2-0.1,0.4,0,0.5,0.1l1.5,2.1
			c0.1,0.1,0.1,0.3-0.1,0.4c0,0,0,0,0,0l-0.1,0.1C137.1,401.8,136.9,401.8,136.8,401.6z"/>
		<path class="st12" d="M106.8,383.4C106.8,383.4,106.8,383.4,106.8,383.4L106.8,383.4v-1.7c-0.2,0.1-0.5,0.2-0.8,0.3
			c-0.2,0-0.5,0-0.8,0c-0.2,0-0.5-0.1-0.7-0.3c-0.2-0.1-0.4-0.3-0.6-0.5c-0.1-0.2-0.2-0.4-0.3-0.7c-0.1-0.2-0.1-0.5,0-0.7
			c0.1-0.2,0.2-0.4,0.3-0.6c0.2-0.2,0.4-0.4,0.6-0.5c0.2-0.1,0.5-0.2,0.8-0.3c0.3,0,0.5,0,0.8,0c0.2,0,0.5,0.1,0.7,0.3
			c0.3,0.2,0.6,0.5,0.8,0.9c0,0.1,0.1,0.2,0.1,0.4c0,0.1,0,0.2,0,0.4c0,0.1,0,0.2,0,0.3l-0.1,2.4c0,0,0,0.1,0,0.1
			c0,0.1-0.1,0.1-0.1,0.1l-0.6,0.3c0,0-0.1,0-0.1,0C106.8,383.5,106.8,383.5,106.8,383.4z M104.9,380.6c0.1,0.2,0.4,0.4,0.6,0.4
			c0.3,0,0.5,0,0.7-0.2c0.2-0.1,0.4-0.3,0.5-0.5c0.1-0.2,0-0.5-0.1-0.7c-0.1-0.2-0.4-0.4-0.6-0.4c-0.3,0-0.5,0-0.7,0.2
			c-0.2,0.1-0.4,0.3-0.5,0.5C104.7,380.2,104.8,380.5,104.9,380.6z"/>
		<path class="st12" d="M108.8,378.1c0.1,0,0.1,0,0.2,0c0.1,0,0.1,0,0.1,0.1l0.4,0.6c0,0,0,0.1,0,0.2c0,0.1,0,0.1-0.1,0.1l-0.6,0.3
			c-0.1,0-0.1,0-0.2,0c-0.1,0-0.1,0-0.1-0.1l-0.4-0.6c0,0,0-0.1,0-0.1c0-0.1,0-0.1,0.1-0.1L108.8,378.1z M110.3,380.3
			c0.1,0,0.1,0,0.2,0c0.1,0,0.1,0,0.1,0.1l0.4,0.6c0,0,0,0.1,0,0.1c0,0.1,0,0.1-0.1,0.1l-0.6,0.4c-0.1,0-0.1,0-0.2,0
			c-0.1,0-0.1,0-0.1-0.1l-0.4-0.6c0,0,0-0.1,0-0.2c0-0.1,0-0.1,0.1-0.1L110.3,380.3z"/>
		<path class="st12" d="M112,374.5c0.1,0,0.1,0,0.2,0c0.1,0,0.1,0,0.1,0.1l0.3,0.4c0,0.1,0,0.1,0,0.2v0.1l-0.3,1.5
			c0.2-0.1,0.4-0.1,0.6-0.2c0.2,0,0.4,0,0.6,0c0.2,0,0.4,0.1,0.5,0.2c0.2,0.1,0.3,0.3,0.4,0.4c0.1,0.2,0.2,0.4,0.3,0.6
			c0,0.2,0,0.4-0.1,0.6c-0.1,0.2-0.2,0.4-0.4,0.6c-0.2,0.2-0.4,0.4-0.6,0.5c-0.3,0.2-0.6,0.3-0.9,0.4c-0.2,0.1-0.5,0.1-0.7,0.1
			c-0.2,0-0.4-0.1-0.6-0.2c-0.2-0.1-0.3-0.2-0.4-0.3c0,0,0-0.1,0-0.1c0-0.1,0-0.1,0.1-0.1l0.5-0.3c0,0,0.1,0,0.1,0l0.2,0.1l0.2,0.1
			c0.1,0,0.2,0,0.3,0c0.1,0,0.2,0,0.3-0.1c0.1-0.1,0.3-0.1,0.4-0.2c0.2-0.1,0.4-0.3,0.5-0.5c0.1-0.2,0.1-0.4-0.1-0.6
			c-0.1-0.2-0.3-0.3-0.5-0.3c-0.3,0-0.5,0.1-0.7,0.3l-0.5,0.3c-0.1,0-0.1,0-0.2,0c-0.1,0-0.1,0-0.1-0.1l-0.3-0.4c0-0.1,0-0.1,0-0.2
			c0-0.1,0-0.1,0-0.2l0.3-1.4l-1.8,1c-0.1,0-0.1,0-0.2,0c-0.1,0-0.1,0-0.1-0.1l-0.3-0.4c0,0,0-0.1,0-0.1c0-0.1,0-0.1,0.1-0.1
			L112,374.5z"/>
		<path class="st12" d="M117.7,373.5c0.1,0.1,0.1,0.2,0.2,0.3l0.2,0.3l0.2,0.3l0.2,0.3c0.1,0.2,0.3,0.5,0.4,0.7
			c0.1,0.2,0.1,0.5,0.1,0.7c0,0.2-0.1,0.5-0.3,0.7c-0.2,0.2-0.4,0.5-0.7,0.6c-0.3,0.2-0.6,0.3-0.9,0.3c-0.3,0.1-0.5,0.1-0.8,0
			c-0.2-0.1-0.5-0.2-0.7-0.4c-0.2-0.2-0.4-0.4-0.6-0.6c-0.1-0.1-0.3-0.3-0.4-0.5s-0.3-0.4-0.4-0.5c-0.2-0.2-0.3-0.5-0.4-0.7
			c-0.1-0.2-0.1-0.5-0.1-0.7c0-0.2,0.1-0.5,0.3-0.7c0.2-0.2,0.4-0.5,0.7-0.6c0.3-0.2,0.6-0.3,0.9-0.3c0.3-0.1,0.5-0.1,0.8,0
			c0.2,0.1,0.5,0.2,0.7,0.4C117.4,373.1,117.6,373.3,117.7,373.5z M115.8,376.1c0.2,0.2,0.4,0.4,0.7,0.6c0.3,0.1,0.6,0,0.8-0.1
			c0.3-0.2,0.5-0.4,0.5-0.6c0-0.3-0.1-0.6-0.3-0.8c-0.1-0.2-0.2-0.4-0.4-0.5c-0.1-0.2-0.3-0.4-0.4-0.5c-0.2-0.2-0.4-0.4-0.7-0.6
			c-0.3-0.1-0.6,0-0.8,0.1c-0.3,0.1-0.4,0.3-0.5,0.6c0,0.3,0.1,0.6,0.3,0.8c0.1,0.2,0.2,0.3,0.4,0.5S115.7,376,115.8,376.1z"/>
		<path class="st12" d="M98.6,375.9L98.6,375.9l-0.1-0.1l-0.3,0.2l0,0l0,0l0,0l0,0v-0.6l0,0l0,0l0,0l0,0l0,0l0.3,0.4h0.1l0,0l0,0
			l0,0l0,0l0,0h-0.1L98.6,375.9L98.6,375.9L98.6,375.9L98.6,375.9L98.6,375.9z M98.4,375.6l-0.2-0.3v0.4L98.4,375.6z"/>
		<path class="st12" d="M98.9,375.6c-0.1,0-0.2-0.1-0.3-0.2c-0.1-0.1-0.1-0.2-0.1-0.3c0-0.1,0.1-0.2,0.2-0.3l0.1-0.1H99l0,0v0.1l0,0
			c-0.1,0-0.1,0-0.2,0c-0.1,0-0.1,0.1-0.1,0.2c0,0.1,0,0.2,0.1,0.3c0,0.1,0.1,0.1,0.2,0.2c0.1,0,0.1,0,0.2,0h0.1c0,0,0,0,0.1-0.1
			l-0.1-0.2l-0.1,0.1l0,0l0,0l0,0l0,0l0,0l0.2-0.1l0,0l0,0l0.2,0.3l0,0l0,0c0,0.1-0.1,0.2-0.2,0.2C99.2,375.6,99,375.6,98.9,375.6z"
			/>
		<path class="st12" d="M101.5,374c0.1,0.1,0,0.2-0.1,0.3c0,0,0,0,0,0c-0.1,0.1-0.2,0-0.3-0.1c-0.1-0.1,0-0.2,0.1-0.3c0,0,0,0,0,0
			C101.3,373.9,101.4,373.9,101.5,374z"/>
		<path class="st12" d="M101,373.6c-0.2,0.1-0.3,0.3-0.3,0.5c0,0,0,0.1,0.1,0.1l0,0c0,0,0.1,0,0.1-0.1c0-0.1,0.1-0.3,0.2-0.4
			c0.1-0.1,0.3-0.1,0.4,0c0,0,0.1,0,0.1,0c0,0,0,0,0,0l0,0c0,0,0-0.1,0-0.1C101.4,373.6,101.2,373.5,101,373.6z"/>
		<path class="st12" d="M100.8,373.4c-0.3,0.1-0.4,0.4-0.4,0.7c0,0,0,0.1,0.1,0.1l0,0c0,0,0.1,0,0.1-0.1c0,0,0,0,0,0
			c0-0.2,0.1-0.5,0.3-0.6c0.2-0.1,0.5-0.1,0.7,0c0,0,0.1,0,0.1,0l0,0c0,0,0-0.1-0.1-0.1C101.4,373.3,101.1,373.2,100.8,373.4z"/>
		<polygon class="st12" points="95.2,378 95,377.7 95.3,377.5 95.5,377.8 		"/>
		<polygon class="st12" points="95.7,377.7 95.3,377.2 95.7,377 96,377.5 		"/>
		<polygon class="st12" points="96.2,377.4 95.7,376.7 96,376.5 96.5,377.2 		"/>
		<polygon class="st12" points="96.7,377.1 96,376.1 96.3,375.9 97,376.9 		"/>
		<path class="st12" d="M117.6,363.9c-0.1,0-0.1,0-0.2,0l-1.3,0.7c-0.1,0-0.1,0.2,0,0.3l0.3,0.4c0,0.1,0.1,0.1,0.2,0.1h0.1
			c0,0,0.1,0,0.1,0l1.3-0.7c0.1-0.1,0.1-0.2,0-0.3c0,0,0,0,0,0l-0.3-0.4C117.8,364,117.7,363.9,117.6,363.9z M116.6,365.4
			C116.6,365.4,116.6,365.4,116.6,365.4l-0.4-0.5c-0.1-0.1-0.1-0.2,0-0.2l1.3-0.7h0.1c0,0,0.1,0,0.1,0.1l0.3,0.4
			c0.1,0.1,0.1,0.2,0,0.2L116.6,365.4C116.7,365.4,116.7,365.4,116.6,365.4L116.6,365.4z"/>
		<path class="st12" d="M116.6,364.6l0.4,0.5l-0.2,0.1c0,0-0.1,0-0.1,0l-0.3-0.4c0,0,0-0.1,0-0.1L116.6,364.6z"/>
		<polygon class="st12" points="116.7,364.6 116.9,364.4 117.3,365 117,365.1 		"/>
		<polygon class="st12" points="117,364.4 117.2,364.3 117.6,364.8 117.4,364.9 		"/>
		<path class="st12" d="M117.6,364.1l0.3,0.4c0.1,0.1,0,0.1-0.1,0.2l-0.1,0.1l-0.4-0.5L117.6,364.1
			C117.5,364.1,117.6,364.1,117.6,364.1z"/>
		<path class="st12" d="M117.8,364c0,0,0.1,0,0.2,0.1v0.1c0.1,0.1,0.1,0.2,0.1,0.2H118l-0.3-0.4H117.8z"/>
		<polygon class="st12" points="114.4,366.1 115.4,365.2 115.6,366.2 115.1,365.9 		"/>
		<path class="st12" d="M129,389.7c1.5,3.3,0.2,7.2-3,9c-2.9,1.6-6.5,1.4-9.2-0.5l1-7.2l8.4,2.8c0.6,0.2,0.8,0.1,0.2-0.4l-2.1-1.3
			l0.9-3.3L129,389.7z"/>
		<path class="st12" d="M116.9,385.8c-3.4,1.9-4.6,6.2-2.7,9.6c0.1,0.3,0.3,0.5,0.5,0.7c0.3,0.4,0.6,0.8,1,1.2l1.1-7.4
			c0-0.1,0.1-0.2,0.2-0.3l0,0c0.1-0.1,0.2-0.1,0.3,0l5.9,2l1-3.8c0.1-0.2,0.3-0.3,0.5-0.3l3.6,0.8l0,0
			C125.7,384.8,120.8,383.7,116.9,385.8z M121.5,388c-0.5,0.3-1.2,0.1-1.5-0.3c-0.3-0.5-0.2-1.1,0.3-1.4c0,0,0,0,0,0
			c0.5-0.3,1.2-0.1,1.5,0.3C122.1,387.1,122,387.7,121.5,388L121.5,388z"/>
		<path class="st12" d="M92.3,332.2c0.5-0.3,1-0.5,1.6-0.6c0.5-0.1,1-0.1,1.5,0.1c0.5,0.1,0.9,0.4,1.4,0.7c0.5,0.4,0.9,0.8,1.2,1.2
			c0.4,0.6,0.9,1.2,1.3,1.8c0.3,0.5,0.5,1,0.7,1.5c0.1,0.5,0.2,0.9,0.1,1.4c-0.1,0.5-0.2,0.9-0.5,1.2c-0.3,0.4-0.7,0.8-1.2,1
			l-2.8,1.6c-0.1,0-0.2,0-0.3,0c-0.1,0-0.2-0.1-0.3-0.2l-5.5-7.8c-0.1-0.1-0.1-0.2-0.1-0.3c0-0.1,0.1-0.2,0.1-0.2L92.3,332.2z
			 M96.4,334.5c-0.2-0.2-0.4-0.5-0.6-0.6c-0.2-0.2-0.5-0.3-0.7-0.4c-0.3-0.1-0.6-0.1-0.8,0c-0.3,0-0.6,0.2-0.9,0.3l-1.5,0.9l3.8,5.4
			l1.5-0.9c0.3-0.1,0.5-0.3,0.7-0.6c0.2-0.2,0.2-0.4,0.3-0.7c0-0.3,0-0.5-0.1-0.8c-0.1-0.3-0.2-0.5-0.4-0.8
			C97.3,335.7,96.9,335.1,96.4,334.5z"/>
		<path class="st12" d="M100.3,335c-0.3-0.4-0.5-0.9-0.7-1.4c-0.2-0.4-0.2-0.9-0.2-1.3c0-0.4,0.2-0.8,0.4-1.2
			c0.2-0.4,0.6-0.7,0.9-0.9c0.4-0.2,0.8-0.4,1.3-0.4c0.4,0,0.9,0,1.3,0.2c0.4,0.2,0.9,0.4,1.2,0.7c0.4,0.3,0.7,0.7,1,1.1l0.4,0.5
			c0.1,0.1,0.1,0.2,0.1,0.3c0,0.1-0.1,0.2-0.1,0.2l-3.7,2.1c0.1,0.2,0.3,0.3,0.4,0.4c0.2,0.1,0.3,0.2,0.5,0.2c0.2,0,0.4,0,0.6,0
			c0.4-0.1,0.7-0.3,1-0.6c0.1-0.1,0.2-0.3,0.2-0.4c0-0.1,0.1-0.2,0.1-0.3c0.1-0.1,0.1-0.1,0.2-0.1l0.9-0.5c0.1,0,0.2,0,0.3,0
			c0.1,0,0.2,0.1,0.2,0.2c0.1,0.2,0.1,0.4,0.1,0.5c0,0.3,0,0.5-0.1,0.8c-0.1,0.3-0.3,0.6-0.5,0.9c-0.3,0.3-0.6,0.6-1,0.8
			c-0.4,0.2-0.8,0.4-1.3,0.4c-0.4,0-0.9,0-1.3-0.2c-0.5-0.2-0.9-0.4-1.3-0.7C101,335.9,100.6,335.5,100.3,335z M101.8,331.6
			c-0.2,0.1-0.4,0.2-0.5,0.4c-0.1,0.1-0.2,0.3-0.2,0.5c0,0.2,0,0.3,0,0.5c0,0.2,0.1,0.3,0.2,0.4l2.5-1.4c-0.1-0.1-0.2-0.2-0.4-0.3
			c-0.3-0.2-0.6-0.3-1-0.3C102.2,331.4,102,331.5,101.8,331.6L101.8,331.6z"/>
		<path class="st12" d="M111,330.7c-0.1-0.1-0.1-0.1-0.2-0.2c-0.1,0-0.3,0-0.4,0c-0.2,0-0.4,0.1-0.6,0.1l-0.9,0.3
			c-0.3,0.1-0.7,0.1-1,0.2c-0.3,0-0.5,0-0.8-0.1c-0.2-0.1-0.5-0.2-0.7-0.4c-0.2-0.2-0.4-0.4-0.5-0.6c-0.2-0.2-0.3-0.5-0.4-0.8
			c-0.1-0.3-0.1-0.6,0-0.9c0.1-0.3,0.2-0.6,0.4-0.9c0.2-0.3,0.5-0.5,0.8-0.7c0.3-0.2,0.7-0.3,1.1-0.4c0.3-0.1,0.7-0.1,1-0.1
			c0.3,0,0.6,0.1,0.8,0.2c0.2,0.1,0.4,0.3,0.6,0.5c0.1,0.1,0.1,0.2,0.1,0.3c0,0.1-0.1,0.2-0.1,0.2l-0.9,0.5
			c-0.1,0.1-0.2,0.1-0.3,0.1l-0.3-0.1c-0.1,0-0.2,0-0.4,0c-0.2,0-0.4,0.1-0.5,0.2c-0.2,0.1-0.4,0.3-0.5,0.5c-0.1,0.2-0.1,0.4,0,0.5
			c0.1,0.1,0.1,0.1,0.2,0.2c0.1,0,0.2,0,0.4,0c0.2,0,0.4-0.1,0.6-0.1l0.9-0.3c0.6-0.2,1.3-0.3,1.9-0.1c0.5,0.2,1,0.5,1.3,1
			c0.2,0.2,0.3,0.5,0.3,0.8c0.1,0.3,0.1,0.6,0,0.9c-0.1,0.3-0.2,0.6-0.5,0.9c-0.3,0.3-0.6,0.6-0.9,0.8c-0.4,0.2-0.7,0.4-1.1,0.4
			c-0.3,0.1-0.7,0.1-1,0c-0.3,0-0.6-0.1-0.9-0.3c-0.2-0.1-0.4-0.3-0.6-0.5c-0.1-0.1-0.1-0.2-0.1-0.3c0-0.1,0.1-0.2,0.1-0.2l0.9-0.5
			c0.1-0.1,0.2-0.1,0.3-0.1l0.3,0.1c0.1,0,0.3,0,0.4,0c0.2,0,0.4-0.1,0.6-0.2c0.1-0.1,0.2-0.1,0.3-0.2c0.1-0.1,0.2-0.2,0.3-0.3
			c0.1-0.1,0.1-0.2,0.1-0.3C111.1,330.8,111.1,330.8,111,330.7z"/>
		<path class="st12" d="M110.1,321.8c0.1,0,0.2,0,0.3,0c0.1,0,0.2,0.1,0.3,0.2l0.7,0.9c0.1,0.1,0.1,0.2,0.1,0.3
			c0,0.1-0.1,0.2-0.1,0.2l-0.9,0.6c-0.1,0-0.2,0-0.3,0c-0.1,0-0.2-0.1-0.3-0.2l-0.7-0.9c-0.1-0.1-0.1-0.2-0.1-0.3
			c0-0.1,0.1-0.2,0.1-0.2L110.1,321.8z M116.1,329.9c0.1,0.1,0.1,0.2,0.1,0.3c0,0.1-0.1,0.2-0.1,0.2l-0.8,0.5c-0.1,0-0.2,0-0.3,0
			c-0.1,0-0.2-0.1-0.3-0.2l-3.9-5.6c-0.1-0.1-0.1-0.2-0.1-0.3c0-0.1,0.1-0.2,0.1-0.2l0.8-0.5c0.1,0,0.2,0,0.3,0
			c0.1,0,0.2,0.1,0.3,0.2L116.1,329.9z"/>
		<path class="st12" d="M121.2,329.1c0.2-0.1,0.3-0.2,0.4-0.4c0.1-0.2,0.2-0.3,0.3-0.5c0-0.2,0-0.4,0-0.6c-0.1-0.2-0.2-0.5-0.3-0.7
			l-0.3-0.5c0,0.1,0,0.2-0.1,0.4c0,0.2-0.1,0.3-0.2,0.4c-0.2,0.4-0.5,0.7-0.9,0.9c-0.4,0.2-0.8,0.3-1.2,0.3c-0.4,0-0.8,0-1.2-0.2
			c-0.4-0.1-0.8-0.4-1.1-0.6c-0.4-0.3-0.7-0.6-1-0.9c-0.1-0.1-0.2-0.3-0.3-0.4s-0.2-0.3-0.3-0.4c-0.2-0.4-0.4-0.8-0.5-1.2
			c-0.1-0.4-0.2-0.8-0.1-1.2c0-0.4,0.1-0.7,0.3-1.1c0.2-0.3,0.5-0.6,0.8-0.8c0.2-0.1,0.4-0.2,0.7-0.3c0.2-0.1,0.4-0.1,0.6-0.1
			c0.2,0,0.3,0,0.5,0c0.1,0,0.3,0.1,0.4,0.1l-0.2-0.3c-0.1-0.1-0.1-0.2-0.1-0.3c0-0.1,0.1-0.2,0.1-0.2l0.8-0.5c0.1,0,0.2,0,0.3,0
			c0.1,0,0.2,0.1,0.3,0.2l4,5.7c0.6,0.7,0.9,1.7,0.8,2.6c-0.2,0.8-0.8,1.6-1.5,1.9c-0.4,0.2-0.7,0.4-1.1,0.4c-0.4,0.1-0.8,0.1-1.1,0
			c-0.3,0-0.7-0.1-1-0.3c-0.3-0.1-0.5-0.3-0.7-0.6c-0.1-0.1-0.1-0.2-0.1-0.3c0-0.1,0.1-0.2,0.1-0.2l0.7-0.4c0.1,0,0.2,0,0.4,0
			l0.3,0.1c0.2,0.1,0.4,0.1,0.6,0.1C120.6,329.3,120.9,329.2,121.2,329.1z M116.6,325.2c0.1,0.2,0.3,0.5,0.5,0.7
			c0.3,0.4,0.7,0.7,1.2,0.9c0.4,0.1,0.8,0,1.1-0.2c0.3-0.2,0.6-0.5,0.7-0.9c0.1-0.4,0-0.9-0.3-1.3c-0.1-0.1-0.2-0.3-0.3-0.5
			c-0.1-0.2-0.2-0.3-0.4-0.4c-0.3-0.4-0.7-0.6-1.1-0.8c-0.4-0.1-0.8,0-1.2,0.2c-0.3,0.2-0.6,0.5-0.7,0.9
			C116.1,324.3,116.3,324.8,116.6,325.2z"/>
		<path class="st12" d="M129.8,322c0.1,0.1,0.1,0.2,0.1,0.3c0,0.1-0.1,0.2-0.1,0.2l-0.8,0.5c-0.1,0-0.2,0-0.3,0
			c-0.1,0-0.2-0.1-0.3-0.2l-2.1-3.1c-0.3-0.4-0.7-0.8-1.1-1c-0.4-0.2-0.9-0.1-1.3,0.1c-0.4,0.2-0.6,0.6-0.6,1c0,0.5,0.2,1,0.5,1.4
			l2.1,3.1c0.1,0.1,0.1,0.2,0.1,0.3c0,0.1-0.1,0.2-0.1,0.2l-0.8,0.5c-0.1,0-0.2,0-0.3,0c-0.1,0-0.2-0.1-0.3-0.2l-3.9-5.6
			c-0.1-0.1-0.1-0.2-0.1-0.3c0-0.1,0.1-0.2,0.1-0.2l0.8-0.5c0.1,0,0.2,0,0.3,0c0.1,0,0.2,0.1,0.3,0.2l0.2,0.3c0-0.3,0.1-0.6,0.3-0.9
			c0.2-0.3,0.5-0.6,0.8-0.7c0.4-0.2,0.8-0.4,1.3-0.4c0.4,0,0.8,0,1.2,0.2c0.4,0.2,0.7,0.4,1,0.7c0.3,0.3,0.6,0.6,0.9,1L129.8,322z"
			/>
		<polygon class="st13" points="31.6,347.4 31.2,346.9 31.6,346.6 31.3,346.1 31.7,345.9 31.4,345.3 31.8,345.1 31.5,344.6 
			31.9,344.4 31.6,343.8 31.9,343.6 38.7,346.3 39.1,346.9 38.6,347.1 39,347.6 38.6,347.9 38.9,348.4 38.5,348.6 38.8,349.1 
			38.4,349.4 38.7,349.9 38.3,350.1 		"/>
		<polygon class="st13" points="104.3,452.1 104.1,451.5 103.6,451.6 103.4,451 103,451.1 102.8,450.5 102.3,450.6 102.1,450 
			101.6,450.2 101.4,449.5 100.9,449.7 98.3,457.3 98.4,457.9 98.9,457.8 99.1,458.4 99.6,458.3 99.8,458.9 100.3,458.8 
			100.5,459.4 101,459.2 101.2,459.9 101.7,459.7 		"/>
		<polygon class="st13" points="216.3,241.4 216,240.7 215.5,240.9 215.3,240.3 214.8,240.5 214.5,239.9 214.1,240.1 213.8,239.4 
			213.3,239.7 213.1,239 212.6,239.2 210.6,247.1 210.9,247.7 211.4,247.5 211.6,248.1 212.1,247.9 212.4,248.5 212.8,248.3 
			213.1,249 213.6,248.8 213.8,249.4 214.3,249.2 		"/>
	</g>
</g>
<g id="Character--inject-2">
	<g id="character--inject-2_1_">
		<path class="st14" d="M252,511.1c0-0.2,1.2-12,1.2-12s-0.8,1.2-7.7,0.6c-2.6-0.3-5.1-0.9-7.6-1.8l-0.5,8.6
			c-1.2,3.5-7.2,3-13.7,3.4c-1.1,0.1-2.2,0.1-3.3,0.1h-0.1c-3.5,0.4-6.5,3-2.5,5.3s10.1,2.4,15.7,2.5
			C240.2,517.8,251.9,517.8,252,511.1z"/>
		<path class="st5" d="M206.4,517.9c-0.3,1.2-0.2,2.4,0.1,3.6c0.3,1.2,4.2,5,10.1,6.6c6,1.7,12.8,0.7,16.1,1.1s6.6,1.7,10.5,2
			c3.9,0.3,7.7,0.1,11-3c0.5-1.2,0.9-3.8,0.6-4C254.2,523.6,206.4,517.9,206.4,517.9z"/>
		<path class="st7" d="M236.6,507.8c-2.1,2.1-7.4,1.8-12.9,2.1c-5.2,0.3-11.3-0.5-14.5,1.3s-3.8,5.9,1.8,10.3c1.6,1.3,3.4,3,5.2,3.7
			c5.9,2.3,12,1.1,15.9,1.4c5.1,0.4,8.1,2.1,12.7,1.8c6-0.3,9.4-2.5,10.1-4.2s-0.5-14.5-2.9-13.8c0,0-0.4,4.2-10.6,1.9
			C236.9,511.3,236.6,508.7,236.6,507.8z"/>
		<path class="st13" d="M216.1,525.1c0,0-2-13.3,5.5-15.2h1c0,0-0.1-0.9-3.1-1.1c-5.7-0.4-9.3,0.3-11.7,2.7c-1.4,1.8-2,4.1-1.5,6.3
			C207,520.3,210,523.3,216.1,525.1z"/>
		<path class="st13" d="M221.5,517.3c0,0-0.4-5.4,3.3-7.5c0.7-0.4,1.5-0.5,2.2-0.1c0,0-3.5,1.2-3.7,7.6c0,0-0.1,0.4-0.9,0.4
			C222.2,517.7,221.6,517.7,221.5,517.3z"/>
		<path class="st13" d="M230.5,509.5c0,0,0-0.2-1-0.2c-0.4,0-0.7,0.1-1,0.3c0,0-2.7,1.8-2.3,7.4c0.1,0.5,0.6,0.7,1,0.7
			c0.4,0.1,0.9-0.2,0.9-0.7c0,0,0,0,0-0.1C228.1,517.1,227.7,511.1,230.5,509.5z"/>
		<path class="st13" d="M233.6,509.1c0,0-0.2-0.3-0.9-0.2c-0.9,0.1-1,0.5-1,0.5s-1.7,2.5-0.9,7.1c0,0,0,0.8,1.1,0.7s0.8-1,0.8-1
			S232.1,510.4,233.6,509.1z"/>
		<path class="st7" d="M236.8,434.5c-0.5,11.9-0.1,67-0.1,67s7.3,6.1,16.5,3l5.7-63.3L236.8,434.5z"/>
		<path class="st14" d="M219.4,531.4c0-0.2,2.2-11.5,2.2-11.5s-2.1,1.4-9,1c-2.3-0.2-4.6-0.6-6.8-1.3l-1.1,8.4
			c-1.1,3.5-7.1,3.2-13.6,3.8c-1.1,0.1-2.2,0.1-3.3,0.2h-0.1c-3.4,0.5-6.4,3.2-2.3,5.4c4.1,2.2,10.2,2.1,15.7,2
			C207.8,539.2,219.5,538.1,219.4,531.4z"/>
		<path class="st5" d="M174,540.3c-0.2,1.2-0.2,2.4,0.2,3.6c0.4,1.2,4.3,4.8,10.3,6.3s12.8,0.3,16.2,0.6c3.4,0.3,6.6,1.5,10.6,1.6
			c3.9,0.2,7.7-0.1,11-3.3c0.5-1.2,0.7-3.8,0.5-4C222,544.6,174,540.3,174,540.3z"/>
		<path class="st7" d="M203.9,529.3c-2.1,2.1-7.3,2-12.8,2.5c-5.2,0.4-11.3-0.2-14.5,1.7s-3.6,6,2.1,10.2c1.7,1.2,3.5,2.9,5.3,3.5
			c5.9,2.1,12,0.7,16,0.9c5.1,0.2,8.2,1.8,12.8,1.4c5.9-0.5,9.3-2.7,10-4.5s-0.9-14.5-3.4-13.7c0,0-0.2,4.3-10.5,2.3
			C204.3,532.8,203.9,530.3,203.9,529.3z"/>
		<path class="st13" d="M184,547.3c0,0-2.4-13.2,5-15.3l1-0.1c0,0-0.2-0.9-3.1-1c-5.7-0.3-9.3,0.6-11.6,3.1
			c-1.4,1.8-1.9,4.1-1.3,6.3C174.8,542.8,177.8,545.6,184,547.3z"/>
		<path class="st13" d="M189.1,539.3c0,0-0.5-5.4,3.1-7.6c0.6-0.5,1.5-0.5,2.2-0.1c0,0-3.5,1.3-3.4,7.7c0,0-0.1,0.5-0.9,0.5
			C189.8,539.7,189.2,539.7,189.1,539.3z"/>
		<path class="st13" d="M197.8,531.3c0,0,0-0.2-1-0.2c-0.4,0-0.7,0.1-1,0.3c0,0-2.6,1.9-2.1,7.5c0.2,0.4,0.6,0.7,1.1,0.7
			c0.4,0.1,0.9-0.3,0.9-0.7c0,0,0,0,0-0.1C195.8,538.9,195.1,532.9,197.8,531.3z"/>
		<path class="st13" d="M201,530.8c0,0-0.2-0.3-0.9-0.2c-0.9,0.2-1,0.6-1,0.6s-1.6,2.5-0.7,7.2c0,0,0.1,0.8,1.2,0.7
			c1.1-0.1,0.8-1,0.8-1S199.5,532,201,530.8z"/>
		<path class="st6" d="M207.9,457.6c-1.4,12.3-2.7,47.8-3.6,65.6c5.4,2.9,11.8,3.6,17.7,2l12.6-63.8L207.9,457.6z"/>
		<path class="st6" d="M287.4,603c-0.8,0-1.5-0.7-1.5-1.5v-95.2c0-0.8,0.7-1.5,1.5-1.5s1.5,0.7,1.5,1.5v95.2
			C288.9,602.4,288.3,603,287.4,603z"/>
		<path class="st6" d="M346.4,568.4c-0.6,0-1.2-0.4-1.4-0.9l-29.2-73.9c-0.3-0.8,0.1-1.6,0.8-1.9c0.8-0.3,1.6,0.1,1.9,0.8l29.2,73.9
			c0.3,0.8-0.1,1.6-0.8,1.9c0,0,0,0,0,0C346.7,568.3,346.5,568.4,346.4,568.4z"/>
		<path class="st6" d="M342.9,559.5c-0.4,0-0.8-0.2-1.1-0.5l-54.3-57.5l-54.2,57.3c-0.5,0.7-1.4,0.8-2.1,0.3
			c-0.7-0.5-0.8-1.4-0.3-2.1c0.1-0.1,0.2-0.2,0.3-0.3l55.3-58.4c0.3-0.3,0.7-0.5,1.1-0.5l0,0c0.4,0,0.8,0.2,1.1,0.5l55.4,58.6
			c0.6,0.6,0.5,1.5-0.1,2.1C343.6,559.4,343.2,559.5,342.9,559.5z"/>
		<path class="st6" d="M228.5,568.4c-0.8,0-1.5-0.7-1.5-1.5c0-0.2,0-0.4,0.1-0.5l29.2-73.9c0.3-0.7,1.2-1.1,1.9-0.8
			c0.7,0.3,1.1,1.1,0.8,1.9l-29.2,73.9C229.7,568,229.1,568.4,228.5,568.4z"/>
		<path class="st2" d="M227.8,473.7c-1.1-6,3.8-10.6,13-16.8c8.5-5.6,17.3-10.5,26.5-14.9c7.6-3.5,15.5-3.2,25.3,1.9
			c13.6,7,54.6,31.9,54.6,31.9s-61.3,34.6-73.1,33s-41.3-20.7-43.6-27.5S227.8,473.7,227.8,473.7z"/>
		<path class="st2" d="M280,501.4c-8.8,8-18,1.1-32.5-8.3c-16.5-10.7-19.7-19.4-19.7-19.4s0,6.5,1.2,9.6s3.9,6.5,15.8,14.7
			s20.5,12.3,28.5,13.8l6.3-0.9"/>
		<path class="st15" d="M247.5,493.1c-16.5-10.7-19.7-19.4-19.7-19.4s0,6.5,1.2,9.6s3.9,6.5,15.8,14.7s20.5,12.3,28.5,13.8l6.3-0.9
			l0.5-9.5C271.3,509.4,262,502.5,247.5,493.1z"/>
		<path class="st5" d="M344.4,557.2l3.9,10.2c0,0.1,0,0.2,0,0.3c0,0.1,0,0.1,0,0.2c0,0.2-0.3,0.5-0.6,0.6c-0.7,0.4-1.6,0.4-2.4,0
			c-0.2-0.1-0.4-0.3-0.5-0.5l0,0v-0.1l-3.6-9.5L344.4,557.2z"/>
		<path class="st5" d="M230.5,557.2l-3.9,10.2c0,0.1,0,0.2,0,0.3c0,0.1,0,0.1,0,0.2c0.1,0.3,0.3,0.5,0.6,0.6c0.7,0.4,1.6,0.4,2.4,0
			c0.2-0.1,0.3-0.3,0.4-0.5l0,0v-0.1l3.6-9.5L230.5,557.2z"/>
		<path class="st5" d="M289.1,594.2v8.4c0,0.3-0.2,0.6-0.5,0.7c-0.8,0.4-1.7,0.4-2.4,0c-0.3-0.1-0.5-0.4-0.5-0.7v-8.4
			C286.8,593.6,288.1,593.6,289.1,594.2z"/>
		<path class="st7" d="M328,450c0,0-49.2-14.8-57.7-17.2s-25-6.3-29.7-4.1s-7.2,4.6-7.7,11.5c-0.1,1.3,0,7.6,0,7.6
			s24.9,10.1,44.4,10.1S328,450,328,450z"/>
		<path class="st6" d="M328.1,443.8c3.1,10.5,4,20.8-3.3,28.4c-5.4,5.5-27.6,25.2-47.1,19.3c-21.8-6.7-47.8-25.6-47.8-25.6
			s-16.8,0.5-16.9-4.4c0-1.2-5.3-2.7-5.3-4c0.7-14.5,10.4-20.5,25-17.9c15.2,2.8,49.3,12.5,49.3,12.5L328.1,443.8z"/>
		<path class="st16" d="M303.8,487.6c3.7-13.4,8-30.4,8-30.4l-20.1,6.3c-4.1,13.1-6.3,20.3-16.6,18.6S230,465.9,230,465.9
			s26,18.9,47.8,25.6C286.5,494.2,295.8,491.7,303.8,487.6z"/>
		<g id="character--inject-2">
			<path class="st6" d="M319.7,362.9c9.6-2.6,17.5,1.1,19.4,10c1.5,7.1,0.2,20.3-1.5,32c0,0-5.6,2.1-17.2-2.1L319.7,362.9z"/>
			<polygon class="st14" points="296,358.1 299.2,378.1 317.2,377.2 315.1,353.8 			"/>
			<path class="st2" d="M335.3,370.2c-6-9.5-19.4-7-19.4-7l0.2,2.3c-0.8,3.4-9.7,4.5-18.5,2.5l-0.2-0.8c0,0-10.5,3.3-14.5,5.5
				c-5.8,3.3-8.3,11.2-4.5,33.9c2.8,16.8,1.1,40.4-3.7,51.2c9,11.5,30.9,9.9,40.1,8.1c19-3.7,22-13.9,22-13.9s4-34.7,3.8-49.7
				C340.3,389.4,339.1,376.2,335.3,370.2z"/>
			<g class="st17">
				<path class="st4" d="M335.3,370.2c-6-9.5-19.4-7-19.4-7l0.2,2.3c-0.8,3.4-9.7,4.5-18.5,2.5l-0.2-0.8c0,0-10.5,3.3-14.5,5.5
					c-5.8,3.3-8.3,11.2-4.5,33.9c2.8,16.8,1.1,40.4-3.7,51.2c9,11.5,30.9,9.9,40.1,8.1c19-3.7,22-13.9,22-13.9s4-34.7,3.8-49.7
					C340.3,389.4,339.1,376.2,335.3,370.2z"/>
			</g>
			<path class="st18" d="M304.5,422.1c-4.8,14.3-6,19.9-13.5,44c7.9,1.2,15.9,1.1,23.8-0.4c19-3.7,22-13.9,22-13.9s4-34.7,3.8-49.7
				c0-2.8-0.1-5.5-0.3-8.3C322.7,397.7,308.9,409,304.5,422.1z"/>
			<path class="st19" d="M282.6,333.6c0,0-4.7,7.2-4.2,7.9c0.5,0.7,4,1.3,4,1.3L282.6,333.6z"/>
			<path class="st14" d="M295.8,313.7c-9.6,2-12.3,6.2-13.2,21.4c-0.9,15.9,0.7,20.9,2.8,23c1.4,1.4,9.2,1.7,13.2,0.6
				c5-1.4,16.1-5.3,21.4-13.3c6.1-9.4,7.8-22.1,1.2-27.4C311.8,310.8,299.7,312.9,295.8,313.7z"/>
			<path class="st19" d="M285.3,358.2c1.2,1.2,6.7,1.6,10.9,1.1l-0.2-2.1c0,0-4.5,1-6.8,1.3C287.8,358.6,286.5,358.5,285.3,358.2
				L285.3,358.2z"/>
			<path class="st5" d="M280.4,320.3L280.4,320.3c2.7,1.8,6,2.5,9.2,2.9c-0.2,2.6,0.7,5.1,1.5,7.5c0.6,1.7,2.7,7,4.8,4
				c1.5-2.2,2.9-4.1,5.9-3.7c5,0.8,5.6,7.1,2.5,11c-3.1,3.9-6.1,2.4-6.1,2.4s0.1,8.4,3.9,13.1c0,0,4.2,1.4,12-0.3
				c4.8-1,11.5-7,14.4-13.3c6-13.4,6.4-25.4-2.1-29.1c-0.9-6.2-5.8-8.9-11.3-10.2c-7.7-1.8-15.5,3.2-23,0.2c-1.6-0.6-3-1.5-4.6-2.1
				c-0.9-0.4-1.9-0.4-2.8,0.1c-0.6,0.5-1,1.3-1.1,2.1c-0.4,1.5-0.3,3,0.4,4.4c-1.1-0.6-2.3-1-3.5-1.2c-1.2-0.2-2.5,0.1-3.5,0.9
				c-0.8,0.8-1.3,1.9-1.3,3.1C275.6,315.4,277.7,318.5,280.4,320.3z"/>
			<g id="Pencil--inject-2">
				<path class="st14" d="M170.9,364.3l-7.7,3.8c-0.1,0.1-0.2,0.2-0.1,0.4c0,0.1,0.1,0.1,0.2,0.1l8.5,1.7L170.9,364.3z"/>
				<path class="st19" d="M163.2,368.5L163.2,368.5l8.5,1.7l-0.4-3.2l-1.1,0.1l-6.9,1.1L163.2,368.5z"/>
				<path class="st13" d="M163.3,368.6c-0.1,0-0.2-0.2-0.2-0.3c0-0.1,0.1-0.1,0.1-0.2l1.5-0.7l0,0c-0.2,0.5-0.1,1.1,0.3,1.5l0.1,0.1
					L163.3,368.6z"/>
				<path class="st2" d="M207.9,365.5l-0.8,0.1l-1,0.1l-34.3,4.5c-0.8-0.6-1.3-1.4-1.5-2.4c-0.4-1.2-0.1-2.6,0.7-3.6l34.3-4.5
					l1.8-0.2C205.9,359.7,206.7,365.7,207.9,365.5z"/>
				<path class="st20" d="M207.9,365.5l-0.8,0.1l-1,0.1l-34.3,4.5c-1-0.7-1.5-1.8-1.6-3l36.3-5c0-0.1,0-0.1,0.1-0.1
					C206.6,363.8,207.2,365.6,207.9,365.5z"/>
				<path class="st21" d="M204.8,365.9l-1.8,0.2c-0.5,0.1-1-1-1.3-2.2c-0.4-1.6-0.2-3.7,0.5-3.8l1.3-0.2l0.5-0.1
					c-0.7,0.1-0.9,2.1-0.5,3.8C203.8,364.9,204.3,365.9,204.8,365.9L204.8,365.9L204.8,365.9z"/>
				<path class="st7" d="M204.4,365.9c-1.2,0.2-1.9-5.8-0.8-6l1.8-0.2c-1.2,0.2-0.4,6.2,0.8,6L204.4,365.9z"/>
				<path class="st21" d="M207.9,365.5l-1.8,0.2c-1.2,0.2-2-5.6-0.9-6h0.1l1.8-0.2C205.9,359.7,206.7,365.7,207.9,365.5z"/>
				<path class="st14" d="M163.1,368.4c0,0.1,0.1,0.2,0.2,0.2C163.1,368.5,163.1,368.4,163.1,368.4z"/>
				<path class="st19" d="M211.5,365l-3.6,0.5c-0.5,0.1-1-0.9-1.3-2.2c-0.4-1.7-0.2-3.7,0.5-3.8l0,0l3.7-0.5
					c1.5-0.2,2.2,2.8,1.9,4.6C212.5,364.3,212.1,364.8,211.5,365z"/>
				<path class="st9" d="M210,363.6c-0.6-1.3-0.5-2.9,0.2-4.1c0.2-0.3,0.5-0.5,0.8-0.5c1.3,0.1,2,2.9,1.6,4.6
					c-0.1,0.6-0.5,1.2-1.1,1.3C211,365.1,210.4,364.6,210,363.6z"/>
			</g>
			<g id="Arm--inject-2">
				<path class="st14" d="M200.4,366.5c0.3,0.3,0.5,0.6,0.8,0.9c1.2,1.3,1.9,2.9,2.1,4.6c0.8,4.4-0.3,4,4.1,6.4s24.4,14.1,24.4,14.1
					c4.4-2,21-10.3,27.3-13.4c11.5-5.8,16.9-9.6,28.3-8.3c3.2,6.6-0.5,19.5-10,26.2c-8.4,5.9-30.5,11.5-39.7,14.2
					c-1,0.3-1.9,0.6-2.7,0.8h-0.2c-5.5,1.4-7.1,0.2-11.5-3c-3.4-2.4-6.7-4.9-10-7.4c-2.4-1.8-4.7-3.6-7.1-5.4
					c-2.3-1.7-4.6-3.2-6.8-5c-3.4-2.7-7-5.2-10.8-7.5c-5.5-3.4-11.3-7.4-12-14.4c-0.1-1.8-0.1-3.7,0.1-5.5l0.5-5.7
					c0-0.3,0.1-0.7,0.3-0.9c0.5-0.6,1.4-0.3,2,0c4.7,2.6,8,7.2,12.6,9.8c0.8,0.5,1.7,0.7,2.6,0.4L200.4,366.5z"/>
			</g>
			<path class="st6" d="M288.5,370.2c-5.5-0.8-9.3-1.9-18.6,2.6s-25.4,13.1-25.4,13.1s-1.9,14.4,7.8,23.3c0,0,23.6-8.5,29.4-12.2
				C287.6,393.2,292.5,380.5,288.5,370.2z"/>
		</g>
		<path class="st2" d="M279.6,511c5-0.3,8.9-3.9,20.9-8.9c22-9.2,38.5-16.5,44.8-28s10.7-44.8,9.2-59.2c-0.2-1.6-0.5-3.2-1.1-4.8
			l1.5-0.2l-4-3.4l0,0c-4.1-3.4-10.8-0.4-15.8,2.4c-14.4,7.8-25.7,15.5-34.6,42.9c-6.7,20.7-11.1,39.5-20.4,49.6"/>
		<path class="st22" d="M353.3,410.1l1.5-0.2l-4-3.4l0,0c-4.1-3.4-10.8-0.4-15.8,2.4c-14.4,7.8-25.7,15.5-34.6,42.9
			c-6.7,20.7-11.1,39.5-20.4,49.6l-0.5,9.5c5-0.3,8.9-3.9,20.9-8.9c22-9.2,38.5-16.5,44.8-28s10.7-44.8,9.2-59.2
			C354.2,413.2,353.8,411.6,353.3,410.1z"/>
		<path class="st2" d="M339.1,412.4c-14.4,7.8-25.7,15.5-34.6,43s-13.8,51.8-31.3,56.5c0,0,7.9,3.1,32.3-7.1
			c7.7-3.3,17.1-9.2,23.3-12.7c12.1-6.8,19.4-12.3,20.6-14.4c6.4-11.5,10.7-44.8,9.2-59.2S346.4,408.5,339.1,412.4z"/>
	</g>
</g>
<g id="thought-bubble--inject-2">
	<g id="User--inject-2">
		<g id="Bubble--inject-2">
			<g id="Facebook--inject-2">
				<path class="st2" d="M347.5,306.4c-0.4-0.2-0.9-0.2-1.3,0.1c-1.1,0.7-1.8,1.9-1.9,3.3c0,0.5,0.2,0.9,0.6,1.2l2.7,1.6
					c0.4,0.2,0.9,0.2,1.3-0.1c1.1-0.7,1.8-1.9,1.9-3.3c0.1-0.5-0.2-0.9-0.5-1.2"/>
				<path class="st2" d="M348.9,308.2c-1.1,0.7-1.8,1.9-1.9,3.3c0,1.2,0.9,1.7,1.9,1.1c1.1-0.7,1.8-1.9,1.9-3.3
					C350.8,308,349.9,307.6,348.9,308.2z"/>
				<path class="st9" d="M347.5,306.4l2.7,1.6c-0.4-0.2-0.9-0.2-1.3,0.1c-0.7,0.5-1.3,1.2-1.6,2l-2.7-1.6c0.3-0.8,0.9-1.5,1.6-2
					C346.5,306.3,347.1,306.2,347.5,306.4z"/>
				<path class="st11" d="M347.5,312.6l-2.7-1.6c-0.4-0.3-0.6-0.7-0.6-1.2l2.7,1.6C346.9,311.9,347.1,312.4,347.5,312.6z"/>
				<path class="st9" d="M344.5,308.5l2.7,1.6c-0.2,0.4-0.3,0.9-0.3,1.3l0,0l-2.7-1.6C344.3,309.4,344.4,308.9,344.5,308.5z"/>
			</g>
			<g id="facebook--inject-2">
				<path class="st2" d="M338.9,314.4c-0.4-0.2-0.8-0.1-1.1,0.1c-1,0.6-1.6,1.7-1.6,2.8c0,0.4,0.2,0.8,0.5,1l2.3,1.4
					c0.4,0.2,0.8,0.1,1.1-0.1c1-0.6,1.6-1.7,1.6-2.8c0-0.4-0.2-0.8-0.5-1"/>
				<path class="st2" d="M340.1,315.9c-1,0.6-1.6,1.7-1.6,2.8c0,1,0.7,1.5,1.6,0.9c1-0.6,1.6-1.7,1.6-2.8
					C341.7,315.9,341,315.4,340.1,315.9z"/>
				<path class="st9" d="M338.9,314.4l2.3,1.4c-0.4-0.2-0.8-0.1-1.1,0.1c-0.6,0.4-1.1,1-1.4,1.7l-2.3-1.4c0.3-0.7,0.8-1.3,1.4-1.7
					C338.1,314.3,338.5,314.3,338.9,314.4z"/>
				<path class="st11" d="M338.9,319.8l-2.3-1.4c-0.3-0.2-0.5-0.6-0.5-1l2.3,1.4C338.4,319.2,338.6,319.5,338.9,319.8z"/>
				<path class="st9" d="M336.4,316.3l2.3,1.4c-0.1,0.4-0.2,0.7-0.2,1.1l0,0l-2.3-1.4C336.1,317,336.2,316.6,336.4,316.3z"/>
			</g>
			<g id="facebook--inject-2_1_">
				<path class="st2" d="M355.5,294.3c-0.7-0.3-1.5-0.2-2.1,0.2c-1.8,1.1-2.9,3.1-3,5.2c-0.1,0.8,0.3,1.5,0.9,1.9l3,1.8
					c0.7,0.3,1.5,0.2,2.1-0.2c1.8-1.1,2.9-3.1,3-5.2c0.1-0.8-0.3-1.5-0.9-1.9"/>
				<path class="st2" d="M356.4,296.3c-1.8,1.1-2.9,3.1-3,5.2c0,1.9,1.3,2.7,3,1.7c1.8-1.1,2.9-3.1,3-5.2
					C359.4,296.1,358,295.3,356.4,296.3z"/>
				<path class="st9" d="M355.5,294.3l3,1.8c-0.7-0.3-1.5-0.2-2.1,0.2c-1.2,0.7-2.1,1.8-2.5,3.1l-3-1.8c0.5-1.3,1.4-2.4,2.5-3.1
					C354,294.1,354.8,294,355.5,294.3z"/>
				<path class="st11" d="M354.3,303.4l-3-1.8c-0.6-0.4-1-1.2-0.9-1.9l3,1.8C353.3,302.2,353.6,302.9,354.3,303.4z"/>
				<path class="st9" d="M350.9,297.6l3,1.8c-0.3,0.6-0.4,1.3-0.4,2l0,0l-3-1.8C350.4,299,350.6,298.3,350.9,297.6z"/>
			</g>
			<g id="facebook--inject-2_2_">
				<path class="st2" d="M360.9,277.7c-0.9-0.4-2.1-0.3-2.9,0.3c-2.4,1.6-4,4.2-4.1,7.1c-0.1,1,0.4,2.1,1.2,2.7l3,1.8
					c0.9,0.4,2.1,0.3,2.9-0.3c2.4-1.6,4-4.2,4.1-7.1c0.1-1-0.4-2.1-1.2-2.7"/>
				<path class="st2" d="M361,279.8c-2.4,1.6-4,4.2-4.1,7.1c0,2.6,1.8,3.7,4.1,2.4c2.4-1.6,4-4.2,4.1-7.1
					C365,279.5,363.2,278.5,361,279.8z"/>
				<path class="st9" d="M360.9,277.7l3,1.8c-0.9-0.4-2.1-0.3-2.9,0.3c-1.6,1-2.8,2.5-3.5,4.3l-3-1.8c0.7-1.8,1.9-3.3,3.6-4.3
					C358.8,277.4,359.9,277.3,360.9,277.7z"/>
				<path class="st11" d="M358,289.5l-2.9-1.7c-0.9-0.6-1.3-1.6-1.2-2.7l3,1.8C356.7,287.9,357.2,288.9,358,289.5z"/>
				<path class="st9" d="M354.4,282.3l3,1.8c-0.4,0.9-0.6,1.8-0.6,2.8l0,0l-3-1.8C353.9,284.1,354.1,283.2,354.4,282.3z"/>
			</g>
		</g>
		<path class="st2" d="M371.8,192.5c-6.4-4-15.5-3.6-25.5,2.2C326.8,206,311,233.4,311,255.9c0,11.1,3.8,18.9,10,22.7
			c0.8,0.5,3.5,2,4.1,2.3c6.4,3.8,15.3,3.3,25.2-2.4c19.5-11.3,35.3-38.6,35.3-61.2c0-11.3-4-19.2-10.4-22.9
			C374.5,194.1,372.2,192.8,371.8,192.5z"/>
		<path class="st9" d="M371.8,192.5c-6.4-4-15.5-3.6-25.5,2.2C326.8,206,311,233.4,311,255.9c0,11.1,3.8,18.9,10,22.7
			c0.8,0.5,3.5,2,4.1,2.3c6.4,3.8,15.3,3.3,25.2-2.4c19.5-11.3,35.3-38.6,35.3-61.2c0-11.3-4-19.2-10.4-22.9
			C374.5,194.1,372.2,192.8,371.8,192.5z"/>
		<path class="st2" d="M373.2,255.5l-53.7-31c-5.3,10.2-8.5,21.3-8.5,31.4c0,11.1,3.8,18.9,10,22.7c0.8,0.5,3.5,2,4.1,2.3
			c6.4,3.8,15.3,3.3,25.2-2.4C359,273.5,367,265.1,373.2,255.5z"/>
		<path class="st9" d="M373.2,255.5l-53.7-31c-5.3,10.2-8.5,21.3-8.5,31.4c0,11.1,3.8,18.9,10,22.7c0.8,0.5,3.5,2,4.1,2.3
			c6.4,3.8,15.3,3.3,25.2-2.4C359,273.5,367,265.1,373.2,255.5z"/>
		<path class="st11" d="M311.7,247.2c-0.5,2.9-0.7,5.8-0.7,8.7c0,11.1,3.8,18.9,10,22.7c0.8,0.5,3.5,2,4.1,2.3
			c6.4,3.8,15.3,3.3,25.2-2.4c2.5-1.5,4.9-3.1,7.1-5L311.7,247.2z"/>
		<path class="st2" d="M350.3,197c-19.5,11.3-35.3,38.6-35.3,61.2c0,22.5,15.8,31.7,35.3,20.4s35.3-38.6,35.3-61.2
			S369.7,185.7,350.3,197z"/>
		<path class="st5" d="M365,250.6c-6.6-0.3-24.1-2.5-24.1-2.5l0,0c-10.6-6.9-16.6-19-15.7-31.7l0.4-5.4c0.7-10.4,8.4-18.9,18.7-20.5
			c11.1-1.7,21.4,5.9,23.1,17c0.2,1.5,0.3,3,0.2,4.5c-0.2,2.7,0.1,5.1,2,7.2c1.1,1.1,2.2,2,3.5,2.8c1.8,1.2,3.4,2.7,4.6,4.4
			c1.3,1.8,1.7,4,1.3,6.1c-0.4,1.3-1.1,2.5-2.1,3.5c-0.2,0.1-0.3,0.3-0.4,0.5c0,0.2,0.1,0.3,0.2,0.5c1.6,2.9,2,6.5,0.4,9.3
			c-1.1,1.7-2.8,3-4.8,3.6c-2,0.6-4,0.9-6.1,0.8C365.7,250.6,365.3,250.6,365,250.6z"/>
		<path class="st23" d="M334.2,250.7c-0.5,3.6-2.4,7-5.3,9.2c-1,0.8-2,1.4-3.2,1.8l0,0l-5,15.4c-3.7-4.3-5.8-10.8-5.8-19
			c0-3.3,0.3-6.6,0.9-9.9l0,0c2.5-6.3,5.8-9,12.9-9.7l0,0C329.2,238.8,335.4,243,334.2,250.7z"/>
		<path class="st23" d="M369.9,246.3c2.7,6.4,6.4,16.8,8.6,23.2l10.6-12.5h9c0,0-10.7,23-17.2,28.3c-4.3,3.5-7,0.9-8.1-1.3l0,0
			c0-0.1-1.8-3.2-4.2-8c-3-6.2-6.3-12.9-6.3-12.9l-7.1-26.3C360.8,236.3,366.5,238.2,369.9,246.3z"/>
		<path class="st24" d="M378.4,269.5c-1.2,1.4-2.3,2.9-3.3,4.5c0,0,1.3-4.3,2.8-5.7L378.4,269.5z"/>
		<path class="st6" d="M400.7,240.3L400.7,240.3l-0.8-0.9l0,0c-0.3-0.2-0.6-0.3-0.9-0.2l-10.3,1.8c-1.1,0.2-2,0.9-2.5,1.9l-9.3,20.1
			c-0.2,0.3-0.2,0.8,0,1.1l0,0l0.9,0.9l0,0c0.3,0.2,0.7,0.3,1,0.2l10.3-1.8c1.1-0.2,2-0.9,2.5-1.9l9.3-20.2
			C401.1,241,401,240.6,400.7,240.3z"/>
		<path class="st5" d="M377.8,263.9l9.2-20.2c0.5-1,1.4-1.6,2.5-1.9l10.3-1.8c1-0.2,1.4,0.4,1,1.3l-9.3,20.2c-0.5,1-1.4,1.6-2.5,1.9
			l-10.3,1.8C377.8,265.4,377.4,264.8,377.8,263.9z"/>
		<path class="st7" d="M388.3,242.3c-0.6,0.3-1,0.8-1.3,1.4l-9.3,20.2c-0.2,0.3-0.2,0.7,0,1.1l-0.8-0.9l0,0c-0.2-0.3-0.2-0.8,0-1.1
			l9.3-20.2c0.3-0.5,0.7-1,1.2-1.3L388.3,242.3z"/>
		<path class="st23" d="M395.9,260.2c4.3-4.9,4.1-11,2.2-12.8l-1.3,2.8c0,0-6.5,1.4-9.7,1.2c-3.1-0.2-5.7-1-6.6-0.4
			c-1.8,1.3-2.3,6.8,2.9,8.8C387.8,261.5,395.9,260.2,395.9,260.2z"/>
		<path class="st13" d="M362.8,263.7l-0.2,5.2c-3.6,3.7-7.8,7-12.3,9.6c-4,2.4-8.4,4-13.1,4.7c-3.3,0.4-6.6,0.1-9.6-1.1l0.7-2.3
			l-2.6-18.1l0,0c0.4-0.4,0.7-0.8,1-1.2c0.1-0.2,0.3-0.4,0.5-0.7c0.2-0.3,0.4-0.6,0.5-0.9c0.1-0.2,0.2-0.4,0.3-0.7s0.2-0.5,0.3-0.8
			c0.1-0.3,0.1-0.3,0.2-0.4l0.4-0.9l0.1-0.3l0,0c0.6-1.7,0.9-3.4,1.2-5.1c1-7.2-0.8-11.5-1.4-12.2l0,0c0.3-0.1,6.9-0.5,6.9-0.5
			l13.2-1.6l6.4,0.2c4.8,3,8.6,7.5,10.7,12.7C369.3,257.8,362.8,263.7,362.8,263.7z"/>
		<path class="st9" d="M337.2,283.2c-3.3,0.4-6.6,0.1-9.6-1.1l0.7-2.3l-2.6-18.1l0,0c0.4-0.4,0.7-0.8,1-1.2c0.1-0.2,0.3-0.4,0.5-0.7
			c0.2-0.3,0.4-0.6,0.5-0.9c0.1-0.2,0.2-0.4,0.3-0.7c0.1-0.2,0.2-0.5,0.3-0.8s0.1-0.3,0.2-0.4l0.4-0.9l0.1-0.3
			c-0.1,1-0.1,2.5-0.1,4.1c0,1.9,0.1,3.7,0.3,5.5c0.6,4.7,5.6,15,7.6,16.7C337.1,282.4,337.2,282.8,337.2,283.2z"/>
		<path class="st23" d="M359.8,200.8c1.4,1.3,3.5,4.9,3.7,17c0.2,10.3-3,13-4.6,13.8c-1.6,0.8-4.8,0.5-7.9,0.1v6.1
			c0,0,7.9,7.8,2.5,8.8c-3.4,0.6-6.9-0.1-9.9-1.8c-2.5-1.4-4.8-3.1-6.7-5.2v-14.8c0,0-1.8,1.9-5-0.7c-2.7-2.1-3.7-5.9-1.8-8
			c1.7-1.8,4.6-1.8,6.4-0.1c0.3,0.3,0.6,0.7,0.8,1.1c0,0,5,0,11.5-4S359.5,204.8,359.8,200.8z"/>
		<path class="st5" d="M352.2,215.9c0.1,0.7-0.5,1.3-1.2,1.4c-0.7,0.1-1.3-0.5-1.4-1.2l0,0c-0.1-0.7,0.5-1.3,1.2-1.4
			S352.1,215.2,352.2,215.9z"/>
		<path class="st24" d="M352,224.1l3.5,0.9c-0.2,0.9-1.2,1.5-2.1,1.3c0,0,0,0-0.1,0C352.3,226.1,351.7,225.1,352,224.1z"/>
		<path class="st5" d="M361.9,211.5l-3-1.1c0.2-0.8,1.1-1.3,1.9-1c0,0,0.1,0,0.1,0C361.7,209.7,362.2,210.6,361.9,211.5z"/>
		<path class="st5" d="M361.7,215.4c0,0.7-0.5,1.3-1.2,1.4c-0.7,0-1.3-0.5-1.4-1.2c0-0.7,0.5-1.3,1.2-1.3
			C361.1,214.1,361.7,214.7,361.7,215.4z"/>
		<polygon class="st24" points="355.9,214 356.2,222.4 360.2,221 		"/>
		<path class="st24" d="M350.9,231.6c-3.3-0.3-10.3-1.9-11.5-4.6c0.5,1.3,1.4,2.5,2.5,3.3c2.1,1.7,8.9,3.3,8.9,3.3L350.9,231.6z"/>
		<path class="st5" d="M337.3,219.8c1.4,0.1,2.7-1,2.7-2.4c0.1-1.4-1-2.7-2.4-2.7c-0.1,0-0.2,0-0.3,0V219.8z"/>
		<path id="Music--inject-2" class="st2" d="M394.6,206.4l3.3,16.4c-0.4-0.1-0.8-0.1-1.2,0c-1.6,0.6-2.5,2.4-1.9,4
			c0.6,1.6,2.4,2.5,4,1.9c1.5-0.5,2.3-2.1,2-3.6l-2.6-13.3l12.2-2.4l0,0l2.1,10.4c-0.4-0.1-0.8-0.1-1.2,0c-1.6,0.6-2.5,2.4-1.9,4
			c0.6,1.6,2.4,2.5,4,1.9c1.5-0.5,2.3-2,2-3.6l0,0l-3.9-19.1L394.6,206.4z"/>
	</g>
</g>
<g id="paper-plane--inject-2_1_">
	<g id="paper-plane--inject-2">
		<polygon class="st2" points="40.6,232.4 89.5,217.2 51.9,243.2 		"/>
		<polygon class="st2" points="89.5,217.2 36.8,225.9 25.5,215 		"/>
		<polygon class="st2" points="36.8,225.9 36.8,238.9 40.6,232.4 89.5,217.2 		"/>
		<polygon class="st25" points="36.8,225.9 36.8,238.9 40.6,232.4 89.5,217.2 		"/>
		<polygon class="st2" points="36.8,238.9 44.3,236 40.6,232.4 		"/>
		<polygon class="st25" points="40.6,232.4 44.3,236 43.1,236.5 		"/>
		<path class="st26" d="M28.2,237.3c-0.5,0-0.8-0.4-0.8-0.8c0-0.3,0.2-0.6,0.4-0.7c1-0.6,2-1.1,3-1.6c0.4-0.2,0.9,0,1.1,0.4
			s0,0.9-0.4,1.1c-1,0.5-1.9,1-2.9,1.5C28.5,237.3,28.4,237.3,28.2,237.3z"/>
		<path class="st26" d="M18.8,310.9c-0.2,0-0.4-0.1-0.5-0.2c-1.8-1.4-3.5-3-5.1-4.7c-0.3-0.3-0.3-0.9,0-1.2c0.3-0.3,0.9-0.3,1.2,0
			c0,0,0,0,0.1,0.1c1.5,1.7,3.1,3.2,4.8,4.5c0.4,0.3,0.4,0.8,0.2,1.2C19.3,310.7,19.1,310.9,18.8,310.9z M10.4,301.7
			c-0.3,0-0.5-0.1-0.7-0.4c-1.2-1.9-2.3-4-3.2-6.1c-0.2-0.4,0-0.9,0.4-1.1c0.4-0.2,0.9,0,1.1,0.4c0.9,2,1.9,4,3.1,5.9
			c0.2,0.4,0.1,0.9-0.2,1.1C10.7,301.7,10.6,301.7,10.4,301.7z M5.4,290.4c-0.4,0-0.7-0.2-0.8-0.6c-0.6-2.2-1-4.5-1.3-6.7
			c0-0.5,0.4-0.8,0.8-0.8c0.4,0,0.7,0.3,0.8,0.6c0.3,2.2,0.7,4.4,1.3,6.6c0.1,0.4-0.1,0.9-0.6,1H5.4z M3.8,277.2H3
			c0-2.3,0.2-4.6,0.5-6.9c0-0.5,0.4-0.8,0.9-0.8s0.8,0.4,0.8,0.9c0,0,0,0.1,0,0.1c-0.3,2.2-0.4,4.4-0.4,6.6L3.8,277.2z M5.4,265.7
			H5.1c-0.4-0.1-0.7-0.6-0.6-1c0.6-2.2,1.4-4.4,2.3-6.5c0.2-0.4,0.7-0.6,1.1-0.4c0.4,0.2,0.6,0.7,0.4,1.1l0,0
			c-0.9,2-1.7,4.1-2.3,6.3C6.1,265.5,5.7,265.7,5.4,265.7z M10.4,254.3c-0.2,0-0.3,0-0.4-0.1c-0.4-0.2-0.5-0.8-0.3-1.2
			c1.2-2,2.6-3.8,4.1-5.6c0.3-0.3,0.8-0.4,1.2-0.1c0.3,0.3,0.4,0.8,0.1,1.2c-1.4,1.7-2.7,3.5-3.9,5.4
			C10.9,254.2,10.6,254.3,10.4,254.3L10.4,254.3z M18.3,244.7c-0.2,0-0.4-0.1-0.6-0.3c-0.3-0.3-0.3-0.9,0-1.2c1.7-1.6,3.5-3,5.3-4.4
			c0.4-0.3,0.9-0.2,1.2,0.2c0,0,0,0,0,0c0.3,0.4,0.2,0.9-0.2,1.2c-1.8,1.3-3.5,2.7-5.2,4.3C18.7,244.6,18.5,244.7,18.3,244.7
			L18.3,244.7z"/>
		<path class="st26" d="M26.5,315.5c-0.1,0-0.2,0-0.3-0.1c-1-0.5-2.1-1-3-1.5c-0.4-0.2-0.6-0.7-0.4-1.1c0.2-0.4,0.7-0.6,1.1-0.4
			c0,0,0.1,0,0.1,0.1c0.9,0.5,1.9,1,2.9,1.5c0.4,0.2,0.6,0.7,0.4,1.1c0,0,0,0,0,0C27.2,315.3,26.9,315.5,26.5,315.5z"/>
	</g>
</g>
</svg>
